<svg width="31" height="28" viewBox="0 0 31 28" fill="none" xmlns="http://www.w3.org/2000/svg">
<g clip-path="url(#clip0_23_2646)">
<path d="M24.4731 10.3173H22.5151C22.9293 9.69465 23.1803 8.98145 23.2054 8.21165C23.2556 7.04562 22.6657 5.95883 21.7495 5.14375C19.8166 3.40036 18.3105 3.37772 16.955 3.68338C15.9383 2.90225 14.633 2.41547 13.1771 2.41547C10.8049 2.41547 8.77159 3.67206 7.8177 5.48337C5.83462 6.08336 4.39124 7.75882 4.39124 9.75126C4.39124 11.8569 5.99778 13.6116 8.15659 14.121V21.638C8.15659 22.8832 9.28619 23.9021 10.6668 23.9021H19.4526C20.8333 23.9021 21.9629 22.8832 21.9629 21.638H24.4731C25.8537 21.638 26.9833 20.6191 26.9833 19.3738V12.5814C26.9833 11.3361 25.8537 10.3173 24.4731 10.3173ZM9.4117 12.0154C8.03107 12.0154 6.90147 10.9965 6.90147 9.75126C6.90147 8.789 7.59178 7.93995 8.62098 7.62297L9.62507 7.31731L10.0769 6.45694C10.6668 5.35884 11.8466 4.6796 13.1771 4.6796C14.1686 4.6796 14.9217 5.07582 15.361 5.41544L16.3399 6.15129C16.3399 6.15129 17.1432 5.78902 18.185 5.78902C19.5656 5.78902 20.6952 6.80788 20.6952 8.05316H16.9299C12.7629 8.05316 12.1102 12.0154 9.4117 12.0154ZM24.4731 19.3738H21.9629V12.5814H24.4731V19.3738Z" fill="#323232"/>
</g>
<defs>
<clipPath id="clip0_23_2646">
<rect width="30.1228" height="27.1696" fill="white" transform="translate(0.625854 0.128662)"/>
</clipPath>
</defs>
</svg>
