<svg width="28" height="27" viewBox="0 0 28 27" fill="none" xmlns="http://www.w3.org/2000/svg">
<g clip-path="url(#clip0_23_3280)">
<path d="M22.03 3.63232H6.52558C5.30738 3.63232 4.31067 4.62903 4.31067 5.84724V21.3516C4.31067 22.5698 5.30738 23.5665 6.52558 23.5665H22.03C23.2482 23.5665 24.2449 22.5698 24.2449 21.3516V5.84724C24.2449 4.62903 23.2482 3.63232 22.03 3.63232ZM9.29422 20.2442C8.37503 20.2442 7.63304 19.5022 7.63304 18.583C7.63304 17.6638 8.37503 16.9218 9.29422 16.9218C10.2134 16.9218 10.9554 17.6638 10.9554 18.583C10.9554 19.5022 10.2134 20.2442 9.29422 20.2442ZM9.29422 10.2771C8.37503 10.2771 7.63304 9.53507 7.63304 8.61588C7.63304 7.69669 8.37503 6.95469 9.29422 6.95469C10.2134 6.95469 10.9554 7.69669 10.9554 8.61588C10.9554 9.53507 10.2134 10.2771 9.29422 10.2771ZM14.2778 15.2606C13.3586 15.2606 12.6166 14.5186 12.6166 13.5994C12.6166 12.6802 13.3586 11.9382 14.2778 11.9382C15.197 11.9382 15.939 12.6802 15.939 13.5994C15.939 14.5186 15.197 15.2606 14.2778 15.2606ZM19.2613 20.2442C18.3421 20.2442 17.6001 19.5022 17.6001 18.583C17.6001 17.6638 18.3421 16.9218 19.2613 16.9218C20.1805 16.9218 20.9225 17.6638 20.9225 18.583C20.9225 19.5022 20.1805 20.2442 19.2613 20.2442ZM19.2613 10.2771C18.3421 10.2771 17.6001 9.53507 17.6001 8.61588C17.6001 7.69669 18.3421 6.95469 19.2613 6.95469C20.1805 6.95469 20.9225 7.69669 20.9225 8.61588C20.9225 9.53507 20.1805 10.2771 19.2613 10.2771Z" fill="#323232"/>
</g>
<defs>
<clipPath id="clip0_23_3280">
<rect width="26.5789" height="26.5789" fill="white" transform="translate(0.988281 0.309937)"/>
</clipPath>
</defs>
</svg>
