<svg width="40" height="40" viewBox="0 0 40 40" fill="none" xmlns="http://www.w3.org/2000/svg">
<path d="M28.7508 19.8132C28.0294 19.4639 27.858 18.5127 28.412 17.9335L31.0262 15.2007C31.5102 14.6948 32.3256 14.7185 32.7794 15.2517L37.0992 20.3279C37.5739 20.8857 37.4318 21.7366 36.8016 22.1099L35.8589 22.6682C35.518 22.8701 35.0986 22.8876 34.742 22.7149L28.7508 19.8132Z" fill="#323232"/>
<path d="M33.621 18.413C33.9034 18.0082 33.9044 17.4705 33.6234 17.0647L32.3077 15.1641C31.866 14.5262 30.9397 14.48 30.4368 15.071L22.9809 23.8325C22.6844 24.1809 22.6157 24.6691 22.8046 25.0858L24.3741 28.548C24.7522 29.3822 25.8947 29.4873 26.4188 28.7362L33.621 18.413Z" fill="#323232"/>
<path d="M33.0624 35.6937C33.475 35.2292 33.4573 34.5244 33.0218 34.0812L26.8649 27.8159C26.3786 27.321 25.5724 27.3499 25.1227 27.8783L24.3555 28.7799C23.9523 29.2537 23.9856 29.9589 24.4317 30.3925L30.7042 36.4897C31.187 36.959 31.9636 36.9305 32.4108 36.4272L33.0624 35.6937Z" fill="#323232"/>
<path d="M29.5185 38.0562C29.9312 37.5917 29.9134 36.8869 29.4779 36.4437L22.8275 29.6761C22.5682 29.4123 22.2003 29.2852 21.8334 29.3326L20.2814 29.5333C19.2998 29.6602 18.9001 30.8657 19.6115 31.5538L27.1605 38.8565C27.6435 39.3238 28.4186 39.2944 28.8649 38.792L29.5185 38.0562Z" fill="#323232"/>
<path d="M25.5196 29.3962C25.8851 29.1305 26.067 28.6796 25.9882 28.2346L25.0927 23.1823C24.9898 22.6017 24.4745 22.1859 23.8853 22.208L10.308 22.7175C9.67325 22.7413 9.17098 23.2628 9.17098 23.898L9.17098 30.4385C9.17098 31.0909 9.69985 31.6197 10.3522 31.6198L22.0765 31.6199C22.3261 31.6199 22.5692 31.5409 22.7711 31.3941L25.5196 29.3962Z" fill="#323232"/>
<path d="M31.0889 13.3412C31.1916 13.0673 31.5874 13.0935 31.6532 13.3785L32.1981 15.7397C32.2665 16.0364 32.0982 16.3365 31.8094 16.4328L30.8355 16.7575C30.3642 16.9146 29.9212 16.455 30.0957 15.9898L31.0889 13.3412Z" fill="#323232"/>
<path d="M24.43 14.8114C25.3717 15.6749 26.8351 15.6114 27.6985 14.6697C28.5619 13.728 28.4985 12.2647 27.5568 11.4012C26.6151 10.5378 25.1517 10.6012 24.2883 11.5429C23.4248 12.4846 23.4883 13.948 24.43 14.8114Z" fill="#323232"/>
<path d="M24.5788 16.619C24.5783 16.6174 24.5779 16.6159 24.5774 16.6142C24.5719 16.5957 24.5642 16.5761 24.5536 16.5563L24.5486 16.544L24.5454 16.541C24.3729 16.0394 24.0697 15.5979 23.5832 15.2538C22.484 14.4618 20.9774 14.7169 20.0839 15.6914L15.4718 20.7215C14.5017 21.7795 14.5736 23.4371 15.6316 24.4072L19.6767 28.1161L16.7495 31.3087C16.2094 31.8978 16.2494 32.82 16.8385 33.3602C17.4276 33.9003 18.3498 33.8604 18.89 33.2712L22.4076 29.4347C23.3777 28.3767 23.3058 26.7191 22.2478 25.749L19.9078 23.6035L21.9982 21.3237C22.2798 22.6991 22.89 24.178 23.7652 25.3756C24.3011 26.1214 25.3838 26.1888 26.0034 25.513C26.4896 24.9827 26.4908 24.1986 26.0608 23.6482L24.5788 16.619ZM24.5788 16.619C24.6983 16.9205 24.7672 17.2464 24.7632 17.5799C24.7632 17.5801 24.7632 17.5803 24.7632 17.5805L24.7452 19.8057C24.7452 19.8059 24.7452 19.8061 24.7452 19.8063C24.7398 21.117 25.201 22.5455 26.0605 23.6479L24.5788 16.619Z" fill="#323232" stroke="white" stroke-width="0.590643"/>
</svg>
