<svg width="23" height="23" viewBox="0 0 23 23" fill="none" xmlns="http://www.w3.org/2000/svg">
<path d="M4.63307 2.38831C1.95303 4.41495 0.203247 7.6155 0.203247 11.2369C0.203247 12.8538 0.557633 14.3931 1.18888 15.7885L4.63307 13.7951V2.38831Z" fill="#323232"/>
<path d="M10.1703 10.5945V0.217651C8.99637 0.339471 7.87783 0.638485 6.8479 1.09254V12.5215L10.1703 10.5945Z" fill="#323232"/>
<path d="M11.2777 12.5104L2.29626 17.6933C2.97181 18.6236 3.78026 19.4542 4.71052 20.1297L14.6001 14.4374L11.2777 12.5104Z" fill="#323232"/>
<path d="M12.3853 6.76276V10.5946L21.3667 15.7774C21.8319 14.7475 22.1419 13.6401 22.2748 12.4772L12.3853 6.76276Z" fill="#323232"/>
<path d="M6.92542 21.4255C8.26544 21.9903 9.72728 22.3114 11.2777 22.3114C14.9766 22.3114 18.2436 20.4841 20.2592 17.7044L16.815 15.711L6.92542 21.4255Z" fill="#323232"/>
<path d="M22.2638 9.91897C21.6547 4.79145 17.546 0.727081 12.3853 0.217651V4.20449L22.2638 9.91897Z" fill="#323232"/>
</svg>
