<svg width="27" height="19" viewBox="0 0 27 19" fill="none" xmlns="http://www.w3.org/2000/svg">
<path d="M7.64651 9.89475C9.65201 9.89475 11.2709 8.31183 11.2709 6.35089C11.2709 4.38995 9.65201 2.80703 7.64651 2.80703C5.64101 2.80703 4.02211 4.38995 4.02211 6.35089C4.02211 8.31183 5.64101 9.89475 7.64651 9.89475ZM22.1441 2.80703H14.8953C13.5664 2.80703 12.479 3.87019 12.479 5.1696V11.076H2.81397V1.62574C2.81397 0.976037 2.27031 0.444458 1.60584 0.444458C0.941365 0.444458 0.397705 0.976037 0.397705 1.62574V16.9825C0.397705 17.6322 0.941365 18.1638 1.60584 18.1638C2.27031 18.1638 2.81397 17.6322 2.81397 16.9825V14.6199H24.5604V16.9825C24.5604 17.6322 25.104 18.1638 25.7685 18.1638C26.433 18.1638 26.9767 17.6322 26.9767 16.9825V7.53218C26.9767 4.92153 24.8141 2.80703 22.1441 2.80703Z" fill="#323232"/>
</svg>
