<svg width="24" height="24" viewBox="0 0 24 24" fill="none" xmlns="http://www.w3.org/2000/svg">
<path d="M22.6141 13.1228H21.4328V3.4717C21.4328 1.6289 19.9326 0.128662 18.0898 0.128662C17.2038 0.128662 16.3533 0.483048 15.7272 1.10913L14.2506 2.58574C14.0616 2.52667 13.8608 2.49124 13.6482 2.49124C13.1756 2.49124 12.7386 2.63299 12.3724 2.86925L15.6327 6.1296C15.869 5.7634 16.0107 5.32632 16.0107 4.85381C16.0107 4.64118 15.9753 4.45217 15.928 4.25135L17.4046 2.77474C17.5818 2.59755 17.8299 2.49124 18.0898 2.49124C18.6332 2.49124 19.0703 2.92831 19.0703 3.4717V13.1228H10.9784C10.6241 12.8747 10.3051 12.5912 10.0098 12.2723L8.35599 10.4413C8.13155 10.1932 7.84804 9.9924 7.54091 9.85065C7.17471 9.67346 6.77307 9.57895 6.35962 9.57895C4.89482 9.59077 3.71354 10.7721 3.71354 12.2368V13.1228H1.35096C0.701257 13.1228 0.169678 13.6544 0.169678 14.3041V20.2105C0.169678 21.51 1.23284 22.5731 2.53225 22.5731C2.53225 23.2228 3.06383 23.7544 3.71354 23.7544H20.2516C20.9013 23.7544 21.4328 23.2228 21.4328 22.5731C22.7323 22.5731 23.7954 21.51 23.7954 20.2105V14.3041C23.7954 13.6544 23.2638 13.1228 22.6141 13.1228Z" fill="#323232"/>
</svg>
