<svg width="29" height="30" viewBox="0 0 29 30" fill="none" xmlns="http://www.w3.org/2000/svg">
<g clip-path="url(#clip0_23_2959)">
<path d="M15.3919 4.35766V12.5322H24.8421C24.8421 7.77158 21.3219 3.82608 16.7385 3.17637C16.0298 3.07006 15.3919 3.63707 15.3919 4.35766ZM22.8576 19.4899C24.0979 17.8952 24.8421 15.887 24.8421 13.7134H7.64262L6.83934 12.0242C6.65034 11.6108 6.22507 11.3509 5.77618 11.3509H3.57899C2.92928 11.3509 2.39771 11.8825 2.39771 12.5322C2.39771 13.1819 2.92928 13.7134 3.57899 13.7134H5.02016C5.02016 13.7134 7.25279 18.5213 7.52449 18.9347C5.95338 19.7735 4.99654 21.6163 5.46905 23.589C5.82344 25.0774 7.05197 26.2705 8.5404 26.6013C11.0211 27.1447 13.2419 25.4673 13.5609 23.1637H16.0179C16.3369 25.4554 18.5459 27.1329 21.003 26.6131C22.5032 26.2942 23.7317 25.1129 24.1098 23.6244C24.5232 21.9825 23.9444 20.4586 22.8576 19.4899ZM9.48542 24.345C8.50496 24.345 7.71349 23.5536 7.71349 22.5731C7.71349 21.5926 8.50496 20.8012 9.48542 20.8012C10.4659 20.8012 11.2574 21.5926 11.2574 22.5731C11.2574 23.5536 10.4659 24.345 9.48542 24.345ZM20.117 24.345C19.1365 24.345 18.3451 23.5536 18.3451 22.5731C18.3451 21.5926 19.1365 20.8012 20.117 20.8012C21.0975 20.8012 21.8889 21.5926 21.8889 22.5731C21.8889 23.5536 21.0975 24.345 20.117 24.345Z" fill="#323232"/>
</g>
<defs>
<clipPath id="clip0_23_2959">
<rect width="28.3509" height="28.3509" fill="white" transform="translate(0.0351562 0.719299)"/>
</clipPath>
</defs>
</svg>
