<svg width="30" height="32" viewBox="0 0 30 32" fill="none" xmlns="http://www.w3.org/2000/svg">
<circle cx="16.4174" cy="7.75231" r="5.00316" transform="rotate(38.7153 16.4174 7.75231)" fill="#323232"/>
<path d="M7.26498 20.1079C6.88538 20.5539 6.34398 21.0132 6.20779 21.6148C6.11278 22.0346 6.06543 22.4799 6.05727 22.9107C6.04368 23.6275 6.41805 24.2418 7.07596 24.4997C7.59368 24.7026 8.27265 24.7213 8.8013 24.571C9.59412 24.3457 10.1753 23.7233 10.7689 23.1726C11.8287 22.1893 12.3974 20.78 13.4196 19.759C13.9045 19.2747 14.7283 18.9714 15.3826 18.9503C17.4347 18.8843 18.763 21.3479 19.0603 23.2601" stroke="#323232" stroke-width="2.08202" stroke-linecap="round"/>
<path d="M8.76655 19.6316L5.9962 17.3863L9.37713 10.7162L14.5919 14.9426L8.76655 19.6316Z" fill="#323232"/>
<path d="M11.6572 8.09142C10.8982 7.48305 9.78977 7.60512 9.18141 8.36407C8.57304 9.12302 8.69511 10.2314 9.45406 10.8398L14.9194 15.2207C15.6783 15.8291 16.7867 15.707 17.3951 14.9481C18.0035 14.1891 17.8814 13.0807 17.1224 12.4723L11.6572 8.09142Z" fill="#323232" stroke="white" stroke-width="0.520506"/>
<path d="M6.83074 17.9989C6.17959 17.4769 5.2286 17.5816 4.70664 18.2328C4.18469 18.8839 4.28942 19.8349 4.94057 20.3569L6.23298 21.3929C6.88413 21.9148 7.83512 21.8101 8.35708 21.1589C8.87903 20.5078 8.7743 19.5568 8.12315 19.0348L6.83074 17.9989Z" fill="#323232" stroke="white" stroke-width="0.520506"/>
</svg>
