<svg width="31" height="31" viewBox="0 0 31 31" fill="none" xmlns="http://www.w3.org/2000/svg">
<g clip-path="url(#clip0_23_2676)">
<path d="M24.6453 3.64875C21.7659 0.769367 16.4993 1.34771 12.8939 4.95309C10.9251 6.9219 9.79307 9.71515 9.76846 11.6717C9.74385 13.6159 10.0884 16.4583 8.10727 18.4394L3.75128 22.7831C3.27138 23.263 3.27138 24.0383 3.75128 24.5305C4.23118 25.0104 5.0064 25.0104 5.4986 24.5305L9.84229 20.1745C11.8234 18.1933 14.6659 18.5379 16.6101 18.5133C18.5543 18.4887 21.3598 17.3566 23.3286 15.3878C26.934 11.7947 27.5247 6.52814 24.6453 3.64875ZM13.3246 14.9571C11.4419 13.0744 12.0326 9.28447 14.629 6.68811C17.2253 4.09174 21.003 3.50109 22.898 5.38377C24.7806 7.26644 24.19 11.0564 21.5936 13.6528C18.9973 16.2491 15.2196 16.8398 13.3246 14.9571Z" fill="#323232"/>
<path d="M22.7749 21.5034C23.4271 21.5034 24.0547 21.7618 24.5099 22.2294C25.4697 23.1892 25.4697 24.752 24.5099 25.7118C24.0547 26.1671 23.4271 26.4255 22.7749 26.4255C22.1228 26.4255 21.4952 26.1671 21.0399 25.6995C20.0801 24.7397 20.0801 23.1769 21.0399 22.2171C21.4952 21.7618 22.1228 21.5034 22.7749 21.5034ZM22.7749 19.0424C21.5198 19.0424 20.2524 19.5223 19.2926 20.4821C17.373 22.4017 17.373 25.5149 19.2926 27.4468C20.2524 28.4066 21.5198 28.8865 22.7749 28.8865C24.03 28.8865 25.2975 28.4066 26.2573 27.4468C28.1769 25.5272 28.1769 22.414 26.2573 20.4821C25.2975 19.5223 24.03 19.0424 22.7749 19.0424Z" fill="#323232"/>
</g>
<defs>
<clipPath id="clip0_23_2676">
<rect width="29.5322" height="29.5322" fill="white" transform="translate(0.625854 0.584778)"/>
</clipPath>
</defs>
</svg>
