<svg width="39" height="21" viewBox="0 0 39 21" fill="none" xmlns="http://www.w3.org/2000/svg">
<g clip-path="url(#clip0_23_2904)">
<path d="M36.3723 3.4884C35.6778 3.4884 35.1171 4.04902 35.1171 4.74351V8.92724C35.1171 9.16153 34.9331 9.34561 34.6988 9.34561C34.4645 9.34561 34.2804 9.16153 34.2804 8.92724V2.23328C34.2804 1.53878 33.7198 0.978163 33.0253 0.978163C32.3308 0.978163 31.7702 1.53878 31.7702 2.23328V8.92724C31.7702 9.16153 31.5861 9.34561 31.3518 9.34561C31.1175 9.34561 30.9334 9.16153 30.9334 8.92724V1.39654C30.9334 0.702037 30.3728 0.141418 29.6783 0.141418C28.9838 0.141418 28.4232 0.702037 28.4232 1.39654V8.91887C28.4232 9.15316 28.2391 9.33724 28.0048 9.33724C27.7705 9.33724 27.5864 9.15316 27.5864 8.91887V3.90677C27.5864 3.21227 27.0258 2.65165 26.3313 2.65165C25.6368 2.65165 25.0762 3.21227 25.0762 3.90677V13.454L21.6288 11.4877C21.1435 11.2115 20.541 11.2869 20.1394 11.6718C19.6374 12.1571 19.6206 12.9603 20.1143 13.454L25.7874 19.2192C26.415 19.8635 27.2685 20.2233 28.1722 20.2233H34.2804C36.1296 20.2233 37.6274 18.7255 37.6274 16.8763V4.74351C37.6274 4.04902 37.0668 3.4884 36.3723 3.4884Z" fill="#323232"/>
</g>
<g clip-path="url(#clip1_23_2904)">
<path d="M2.76568 3.4884C3.46018 3.4884 4.0208 4.04902 4.0208 4.74351V8.92724C4.0208 9.16153 4.20489 9.34561 4.43917 9.34561C4.67346 9.34561 4.85755 9.16153 4.85755 8.92724V2.23328C4.85755 1.53878 5.41816 0.978163 6.11266 0.978163C6.80716 0.978163 7.36778 1.53878 7.36778 2.23328V8.92724C7.36778 9.16153 7.55186 9.34561 7.78615 9.34561C8.02044 9.34561 8.20452 9.16153 8.20452 8.92724V1.39654C8.20452 0.702037 8.76514 0.141418 9.45964 0.141418C10.1541 0.141418 10.7148 0.702037 10.7148 1.39654V8.91887C10.7148 9.15316 10.8988 9.33724 11.1331 9.33724C11.3674 9.33724 11.5515 9.15316 11.5515 8.91887V3.90677C11.5515 3.21227 12.1121 2.65165 12.8066 2.65165C13.5011 2.65165 14.0617 3.21227 14.0617 3.90677V13.454L17.5091 11.4877C17.9944 11.2115 18.5969 11.2869 18.9985 11.6718C19.5006 12.1571 19.5173 12.9603 19.0236 13.454L13.3505 19.2192C12.7229 19.8635 11.8695 20.2233 10.9658 20.2233H4.85755C3.00834 20.2233 1.51057 18.7255 1.51057 16.8763V4.74351C1.51057 4.04902 2.07119 3.4884 2.76568 3.4884Z" fill="#323232"/>
</g>
<defs>
<clipPath id="clip0_23_2904">
<rect width="20.0819" height="20.0819" fill="white" transform="translate(18.3822 0.141418)"/>
</clipPath>
<clipPath id="clip1_23_2904">
<rect width="20.0819" height="20.0819" fill="white" transform="matrix(-1 0 0 1 20.7557 0.141418)"/>
</clipPath>
</defs>
</svg>
