<svg width="26" height="27" viewBox="0 0 26 27" fill="none" xmlns="http://www.w3.org/2000/svg">
<g clip-path="url(#clip0_23_2734)">
<path d="M17.213 7.08646V13.5413C17.213 14.7247 18.1812 15.693 19.3646 15.693H20.4404V23.2237C20.4404 23.8154 20.9245 24.2995 21.5162 24.2995C22.1079 24.2995 22.5921 23.8154 22.5921 23.2237V3.99887C22.5921 3.29959 21.9358 2.7832 21.258 2.94458C18.9343 3.51476 17.213 5.48349 17.213 7.08646ZM11.8339 10.3139H9.6823V3.85902C9.6823 3.26732 9.19818 2.7832 8.60648 2.7832C8.01479 2.7832 7.53067 3.26732 7.53067 3.85902V10.3139H5.37904V3.85902C5.37904 3.26732 4.89493 2.7832 4.30323 2.7832C3.71153 2.7832 3.22742 3.26732 3.22742 3.85902V10.3139C3.22742 12.6914 5.15312 14.6171 7.53067 14.6171V23.2237C7.53067 23.8154 8.01479 24.2995 8.60648 24.2995C9.19818 24.2995 9.6823 23.8154 9.6823 23.2237V14.6171C12.0598 14.6171 13.9855 12.6914 13.9855 10.3139V3.85902C13.9855 3.26732 13.5014 2.7832 12.9097 2.7832C12.318 2.7832 11.8339 3.26732 11.8339 3.85902V10.3139Z" fill="#323232"/>
</g>
<defs>
<clipPath id="clip0_23_2734">
<rect width="25.8195" height="25.8195" fill="white" transform="translate(0 0.631592)"/>
</clipPath>
</defs>
</svg>
