<svg width="28" height="22" viewBox="0 0 28 22" fill="none" xmlns="http://www.w3.org/2000/svg">
<path d="M25.1511 1.23375C23.8101 0.808137 22.3361 0.625732 20.9226 0.625732C18.5668 0.625732 16.0297 1.11214 14.2779 2.44978C12.5261 1.11214 9.989 0.625732 7.63314 0.625732C5.27728 0.625732 2.7402 1.11214 0.988403 2.44978V20.2646C0.988403 20.5686 1.29044 20.8726 1.59247 20.8726C1.71328 20.8726 1.77369 20.8118 1.8945 20.8118C3.52548 20.0214 5.88135 19.4742 7.63314 19.4742C9.989 19.4742 12.5261 19.9606 14.2779 21.2982C15.9089 20.2646 18.8688 19.4742 20.9226 19.4742C22.916 19.4742 24.9699 19.839 26.6612 20.751C26.7821 20.8118 26.8425 20.8118 26.9633 20.8118C27.2653 20.8118 27.5674 20.5078 27.5674 20.2038V2.44978C26.8425 1.90256 26.0572 1.53776 25.1511 1.23375ZM25.1511 17.6502C23.8221 17.2245 22.3724 17.0421 20.9226 17.0421C18.8688 17.0421 15.9089 17.8326 14.2779 18.8662V4.88184C15.9089 3.84821 18.8688 3.05779 20.9226 3.05779C22.3724 3.05779 23.8221 3.2402 25.1511 3.66581V17.6502Z" fill="#323232"/>
<path d="M20.9226 7.92189C21.9857 7.92189 23.0126 8.03133 23.9429 8.23805V6.38969C22.9885 6.20728 21.9616 6.09784 20.9226 6.09784C18.8687 6.09784 17.0082 6.45049 15.486 7.10714V9.12576C16.8512 8.3475 18.7479 7.92189 20.9226 7.92189Z" fill="#323232"/>
<path d="M15.486 10.3418V12.3604C16.8512 11.5821 18.7479 11.1565 20.9226 11.1565C21.9857 11.1565 23.0126 11.2659 23.9429 11.4727V9.62431C22.9885 9.4419 21.9616 9.33246 20.9226 9.33246C18.8687 9.33246 17.0082 9.69727 15.486 10.3418Z" fill="#323232"/>
<path d="M20.9226 12.5792C18.8687 12.5792 17.0082 12.9319 15.486 13.5885V15.6071C16.8512 14.8289 18.7479 14.4033 20.9226 14.4033C21.9857 14.4033 23.0126 14.5127 23.9429 14.7194V12.8711C22.9885 12.6765 21.9616 12.5792 20.9226 12.5792Z" fill="#323232"/>
</svg>
