<svg width="22" height="27" viewBox="0 0 22 27" fill="none" xmlns="http://www.w3.org/2000/svg">
<path d="M11.468 7.30049C12.272 7.01695 12.8692 6.23721 12.9611 5.36296C13.0185 4.80769 12.9036 4.28786 12.6395 3.86255L11.1694 1.23979C10.9512 0.84992 10.4 0.84992 10.1703 1.23979L8.70023 3.86255C8.50499 4.21698 8.39014 4.63048 8.39014 5.07942C8.39014 6.6389 9.88316 7.85576 11.468 7.30049ZM15.8897 19.162L14.7412 17.9806L13.5008 19.2447C12.0078 20.7805 9.38931 20.7924 7.88481 19.2447L6.65595 17.9806L5.40411 19.2447C4.6576 20.0126 3.65843 20.4379 2.60184 20.4379C1.76345 20.4379 0.993975 20.1662 0.35083 19.7173V23.9822C0.35083 25.2818 1.38446 26.345 2.64778 26.345H18.7264C19.9897 26.345 21.0233 25.2818 21.0233 23.9822V19.7173C20.162 20.3198 19.0595 20.6033 17.8765 20.3316C17.1185 20.1662 16.4409 19.7291 15.8897 19.162ZM17.5779 10.9865H11.8356V9.80511C11.8356 9.15533 11.3187 8.62369 10.6871 8.62369C10.0554 8.62369 9.53861 9.15533 9.53861 9.80511V10.9865H3.79625C1.88978 10.9865 0.35083 12.5696 0.35083 14.5308V16.2557C0.35083 17.2599 0.925067 18.2287 1.85533 18.5476C2.69372 18.8312 3.60101 18.6185 4.18673 18.0042L6.64446 15.4878L9.09071 18.0042C9.96355 18.9021 11.3991 18.9021 12.272 18.0042L14.7297 15.4878L17.176 18.0042C17.6698 18.5122 18.3589 18.7485 19.0709 18.654C20.2079 18.5004 21.0119 17.4017 21.0119 16.2202V14.5426C21.0233 12.5696 19.4844 10.9865 17.5779 10.9865Z" fill="#323232"/>
</svg>
