<svg width="35" height="38" viewBox="0 0 35 38" fill="none" xmlns="http://www.w3.org/2000/svg">
<g clip-path="url(#clip0_23_2753)" filter="url(#filter0_d_23_2753)">
<mask id="path-1-outside-1_23_2753" maskUnits="userSpaceOnUse" x="-7.42934" y="7.94693" width="38.0744" height="21.1349" fill="black">
<rect fill="white" x="-7.42934" y="7.94693" width="38.0744" height="21.1349"/>
<path d="M-3.89406 25.6399C-3.88987 24.4616 -5.07193 25.6357 -3.89406 25.6399C-5.07193 25.6357 -3.89825 26.8182 -3.89406 25.6399C-4.98804 25.636 -3.89825 26.8182 -3.89406 25.6399C-3.88987 24.4616 -2.71618 25.6441 -3.89406 25.6399Z"/>
</mask>
<path d="M-3.89406 25.6399C-3.88987 24.4616 -5.07193 25.6357 -3.89406 25.6399C-5.07193 25.6357 -3.89825 26.8182 -3.89406 25.6399C-4.98804 25.636 -3.89825 26.8182 -3.89406 25.6399C-3.88987 24.4616 -2.71618 25.6441 -3.89406 25.6399Z" fill="white"/>
<path d="M11.2415 14.3326L12.1992 13.9077L12.1802 13.8648L12.1574 13.8238L11.2415 14.3326ZM13.0928 23.7706L12.2533 23.1436L12.2096 23.2022L12.1744 23.2662L13.0928 23.7706ZM13.7144 25.7407L13.7107 26.7884L13.7144 26.7884L13.7144 25.7407ZM24.8823 20.7415L23.9666 20.2323L23.9653 20.2346L24.8823 20.7415ZM28.7404 13.8031L27.8282 13.2876L27.8247 13.2939L28.7404 13.8031ZM11.9667 12.158L11.0163 12.5991L11.2967 13.2034L11.9629 13.2058L11.9667 12.158ZM11.2547 10.6237L10.3001 11.0558L10.3043 11.0647L11.2547 10.6237ZM9.64901 11.4661L10.5649 10.9572L10.2667 10.4205L9.65274 10.4183L9.64901 11.4661ZM10.2838 14.7575L13.6008 22.2331L15.5161 21.3832L12.1992 13.9077L10.2838 14.7575ZM13.719 21.1812L12.2533 23.1436L13.9322 24.3975L15.3979 22.4351L13.719 21.1812ZM12.1744 23.2662C11.9815 23.6175 11.7936 23.966 11.6634 24.2757C11.5483 24.5492 11.3883 24.9882 11.4637 25.457C11.507 25.726 11.6244 25.988 11.8287 26.2071C12.0227 26.4151 12.2516 26.5382 12.4541 26.6137C12.8324 26.7546 13.2795 26.7869 13.7107 26.7884L13.7181 24.693C13.5405 24.6923 13.409 24.6845 13.3136 24.673C13.2152 24.6611 13.1808 24.6482 13.1858 24.6501C13.1923 24.6525 13.2729 24.6832 13.3613 24.778C13.46 24.8839 13.5145 25.0118 13.5326 25.1243C13.548 25.2196 13.5323 25.2717 13.537 25.2508C13.5412 25.232 13.5556 25.1816 13.5949 25.0883C13.6761 24.8951 13.8107 24.64 14.0111 24.2749L12.1744 23.2662ZM13.7144 26.7884L25.4678 26.7884L25.4678 24.693L13.7144 24.693L13.7144 26.7884ZM14.5547 22.8559L23.0007 22.8859L23.0082 20.7904L14.5622 20.7604L14.5547 22.8559ZM23.0007 22.8859C24.193 22.8901 25.2509 22.2403 25.7992 21.2484L23.9653 20.2346C23.7808 20.5684 23.422 20.7919 23.0082 20.7904L23.0007 22.8859ZM25.7979 21.2507L29.6561 14.3122L27.8247 13.2939L23.9666 20.2323L25.7979 21.2507ZM29.6526 14.3185C30.446 12.9145 29.4309 11.1724 27.8182 11.1667L27.8107 13.2621C27.8176 13.2621 27.82 13.263 27.8195 13.2628C27.8191 13.2627 27.8185 13.2625 27.8183 13.2623C27.8182 13.2622 27.8192 13.2628 27.8209 13.2646C27.8226 13.2664 27.8247 13.269 27.8266 13.2722C27.8308 13.2794 27.831 13.2841 27.831 13.2837C27.831 13.2832 27.8311 13.2822 27.8313 13.2814C27.8315 13.2803 27.8313 13.2823 27.8283 13.2876L29.6526 14.3185ZM27.8182 11.1667L11.9704 11.1103L11.9629 13.2058L27.8107 13.2621L27.8182 11.1667ZM12.9171 11.717L12.2051 10.1827L10.3043 11.0647L11.0163 12.5991L12.9171 11.717ZM12.2092 10.1916C11.8627 9.42615 11.0956 8.96479 10.2969 8.96195L10.2894 11.0574C10.29 11.0574 10.2919 11.0575 10.2948 11.0584C10.2977 11.0592 10.3006 11.0606 10.3029 11.062C10.3077 11.0651 10.3042 11.0645 10.3002 11.0558L12.2092 10.1916ZM10.2969 8.96195L8.54075 8.95571L8.5333 11.0512L10.2894 11.0574L10.2969 8.96195ZM8.54075 8.95571C8.28385 8.9548 7.79647 8.94919 7.3709 9.11768C7.12593 9.21466 6.8514 9.38612 6.64646 9.6838C6.4414 9.98167 6.36964 10.3135 6.36855 10.62L8.464 10.6274C8.46395 10.6393 8.4592 10.746 8.37244 10.872C8.28582 10.9979 8.18092 11.0507 8.14226 11.066C8.11428 11.0771 8.12471 11.0677 8.20841 11.0601C8.28859 11.0528 8.39037 11.0506 8.5333 11.0512L8.54075 8.95571ZM6.36855 10.62C6.36618 11.2867 6.69091 11.8177 7.17516 12.1374C7.60818 12.4233 8.11124 12.5083 8.52811 12.5098L8.53556 10.4144C8.45891 10.4141 8.39973 10.4057 8.35986 10.3958C8.31898 10.3858 8.3135 10.378 8.32967 10.3887C8.3493 10.4016 8.39052 10.4356 8.42438 10.4971C8.45935 10.5605 8.46405 10.6125 8.464 10.6274L6.36855 10.62ZM8.52811 12.5098L9.64529 12.5138L9.65274 10.4183L8.53556 10.4144L8.52811 12.5098ZM8.73313 11.9749L10.3256 14.8414L12.1574 13.8238L10.5649 10.9572L8.73313 11.9749ZM-3.88661 23.5445C-3.87757 23.5445 -3.72154 23.5437 -3.49524 23.6287C-3.26043 23.7169 -2.8681 23.9328 -2.58955 24.401C-1.9662 25.4487 -2.54824 26.376 -2.85748 26.6832C-3.16662 26.9902 -4.0987 27.5667 -5.14271 26.935C-5.60894 26.6529 -5.82181 26.259 -5.90817 26.0238C-5.99143 25.7971 -5.98953 25.6413 -5.9895 25.6325L-1.79861 25.6474C-1.79753 25.3439 -1.83166 24.9671 -1.97416 24.579C-2.11976 24.1826 -2.41509 23.6871 -2.97315 23.3494C-4.20081 22.6066 -5.354 23.2559 -5.8109 23.7098C-6.2679 24.1637 -6.92434 25.3116 -6.19122 26.5439C-5.85778 27.1043 -5.36453 27.4034 -4.96889 27.552C-4.58176 27.6974 -4.20501 27.7343 -3.90151 27.7354L-3.88661 23.5445ZM-5.9895 25.6325C-5.98947 25.6236 -5.99026 25.4678 -5.90539 25.2417C-5.81736 25.0072 -5.60169 24.6147 -5.13347 24.3359C-4.08499 23.7117 -3.15704 24.2948 -2.85009 24.604C-2.54304 24.9134 -1.96761 25.8448 -2.59839 26.888C-2.88027 27.3542 -3.27411 27.5673 -3.50955 27.6539C-3.73645 27.7373 -3.89247 27.7354 -3.90151 27.7354L-3.88661 23.5445C-4.19011 23.5434 -4.56712 23.5776 -4.95527 23.7202C-5.35195 23.866 -5.84732 24.1616 -6.18474 24.7197C-6.92659 25.9466 -6.27833 27.0992 -5.82458 27.5564C-5.37092 28.0134 -4.22237 28.671 -2.98946 27.9369C-2.42901 27.6032 -2.13017 27.1098 -1.98175 26.7144C-1.8365 26.3274 -1.79969 25.9508 -1.79861 25.6474L-5.9895 25.6325ZM-3.88661 23.5445C-4.37116 23.5427 -5.55156 23.6534 -6.18313 24.7777C-6.83292 25.9345 -6.28671 27.0231 -5.84658 27.5006C-5.59164 27.7771 -5.21341 28.0542 -4.7121 28.1846C-4.17091 28.3255 -3.51048 28.28 -2.91857 27.9004C-2.36324 27.5443 -2.09057 27.038 -1.96159 26.6682C-1.83237 26.2978 -1.79965 25.9384 -1.79861 25.6474L-5.9895 25.6325C-5.98948 25.6268 -5.98915 25.594 -5.9815 25.5401C-5.97399 25.4871 -5.95734 25.3988 -5.91867 25.2879C-5.84582 25.079 -5.65043 24.6737 -5.18076 24.3725C-4.67451 24.0479 -4.10813 24.0113 -3.65661 24.1288C-3.24495 24.2359 -2.95199 24.4574 -2.76517 24.66C-2.46126 24.9897 -1.98263 25.8572 -2.52922 26.8302C-2.78954 27.2937 -3.17097 27.5301 -3.43691 27.6354C-3.6863 27.7342 -3.8684 27.7355 -3.90151 27.7354L-3.88661 23.5445ZM-1.79861 25.6474C-1.79864 25.6562 -1.79786 25.812 -1.88272 26.0381C-1.97075 26.2727 -2.18642 26.6651 -2.65464 26.9439C-3.70312 27.5681 -4.63108 26.985 -4.93803 26.6758C-5.24507 26.3664 -5.8205 25.435 -5.18973 24.3918C-4.90785 23.9256 -4.514 23.7125 -4.27857 23.626C-4.05167 23.5426 -3.89564 23.5444 -3.88661 23.5445L-3.90151 27.7354C-3.598 27.7364 -3.221 27.7023 -2.83284 27.5596C-2.43616 27.4138 -1.9408 27.1182 -1.60337 26.5602C-0.86152 25.3332 -1.50978 24.1806 -1.96354 23.7235C-2.4172 23.2664 -3.56575 22.6088 -4.79866 23.3429C-5.3591 23.6766 -5.65795 24.17 -5.80636 24.5654C-5.95162 24.9524 -5.98842 25.329 -5.9895 25.6325L-1.79861 25.6474Z" fill="#323232" mask="url(#path-1-outside-1_23_2753)"/>
<ellipse cx="16.0651" cy="27.0839" rx="1.00743" ry="1.00743" fill="white" stroke="#323232" stroke-width="2.79395"/>
<circle cx="25.4678" cy="27.0839" r="1.00743" fill="white" stroke="#323232" stroke-width="2.79395"/>
<path d="M11.6487 14.7651C11.1117 13.7935 11.8145 12.6021 12.9247 12.6021H26.8489C27.972 12.6021 28.6733 13.8185 28.1106 14.7904L24.6588 20.7527C24.3981 21.2029 23.9173 21.4801 23.3971 21.4801H16.2196C15.689 21.4801 15.2003 21.1918 14.9437 20.7274L11.6487 14.7651Z" fill="#323232"/>
</g>
<defs>
<filter id="filter0_d_23_2753" x="0.906494" y="0.631592" width="37.5321" height="37.5322" filterUnits="userSpaceOnUse" color-interpolation-filters="sRGB">
<feFlood flood-opacity="0" result="BackgroundImageFix"/>
<feColorMatrix in="SourceAlpha" type="matrix" values="0 0 0 0 0 0 0 0 0 0 0 0 0 0 0 0 0 0 127 0" result="hardAlpha"/>
<feOffset dy="4"/>
<feGaussianBlur stdDeviation="2"/>
<feComposite in2="hardAlpha" operator="out"/>
<feColorMatrix type="matrix" values="0 0 0 0 0 0 0 0 0 0 0 0 0 0 0 0 0 0 0.25 0"/>
<feBlend mode="normal" in2="BackgroundImageFix" result="effect1_dropShadow_23_2753"/>
<feBlend mode="normal" in="SourceGraphic" in2="effect1_dropShadow_23_2753" result="shape"/>
</filter>
<clipPath id="clip0_23_2753">
<rect width="29.5322" height="29.5322" fill="white" transform="translate(4.90649 0.631592)"/>
</clipPath>
</defs>
</svg>
