<svg width="24" height="23" viewBox="0 0 24 23" fill="none" xmlns="http://www.w3.org/2000/svg">
<path d="M2.42475 11.0829V15.4111C2.42475 16.3092 3.23704 17.0342 4.24331 17.0342C5.24958 17.0342 6.06186 16.3092 6.06186 15.4111V11.0829C6.06186 10.1848 5.24958 9.45983 4.24331 9.45983C3.23704 9.45983 2.42475 10.1848 2.42475 11.0829ZM9.69898 11.0829V15.4111C9.69898 16.3092 10.5113 17.0342 11.5175 17.0342C12.5238 17.0342 13.3361 16.3092 13.3361 15.4111V11.0829C13.3361 10.1848 12.5238 9.45983 11.5175 9.45983C10.5113 9.45983 9.69898 10.1848 9.69898 11.0829ZM1.81856 22.4444H21.2165C22.2228 22.4444 23.0351 21.7195 23.0351 20.8214C23.0351 19.9233 22.2228 19.1983 21.2165 19.1983H1.81856C0.81229 19.1983 0 19.9233 0 20.8214C0 21.7195 0.81229 22.4444 1.81856 22.4444ZM16.9732 11.0829V15.4111C16.9732 16.3092 17.7855 17.0342 18.7918 17.0342C19.7981 17.0342 20.6103 16.3092 20.6103 15.4111V11.0829C20.6103 10.1848 19.7981 9.45983 18.7918 9.45983C17.7855 9.45983 16.9732 10.1848 16.9732 11.0829ZM10.39 0.251577L0.81229 4.75291C0.315217 4.98014 0 5.44542 0 5.94317C0 6.68978 0.678929 7.29573 1.51547 7.29573H21.5317C22.3562 7.29573 23.0351 6.68978 23.0351 5.94317C23.0351 5.44542 22.7199 4.98014 22.2228 4.75291L12.6451 0.251577C11.9419 -0.083859 11.0932 -0.083859 10.39 0.251577Z" fill="#323232"/>
</svg>
