<svg width="31" height="30" viewBox="0 0 31 30" fill="none" xmlns="http://www.w3.org/2000/svg">
<g clip-path="url(#clip0_23_3051)">
<path d="M13.7407 23.072C14.196 22.506 14.8974 22.1491 15.6726 22.1491C16.4478 22.1491 17.1369 22.506 17.5922 23.072C18.0721 22.9612 18.5274 22.8136 18.9704 22.629L17.2231 18.716C16.7432 18.9006 16.2141 18.999 15.6726 18.999C15.1066 18.999 14.5652 18.8883 14.073 18.6914L12.3133 22.6167C12.7809 22.8136 13.2485 22.9735 13.7407 23.072ZM7.24366 12.3051C7.04678 13.0311 6.93603 13.794 6.93603 14.5815C6.93603 15.5044 7.08369 16.3903 7.3421 17.2271C8.11732 17.2886 8.84332 17.7193 9.26169 18.4453C9.66776 19.1467 9.69237 19.9588 9.39704 20.6479C9.72928 20.9801 10.0861 21.3001 10.4676 21.5831L12.338 17.4117C11.7596 16.698 11.4151 15.7874 11.4151 14.7907C11.4151 12.465 13.3224 10.5946 15.6726 10.5946C18.0229 10.5946 19.9302 12.4773 19.9302 14.7907C19.9302 15.7997 19.5733 16.7226 18.9704 17.4486L20.8161 21.5708C21.2099 21.2754 21.5791 20.9555 21.9236 20.5987C21.6529 19.9219 21.6775 19.1221 22.0713 18.4453C22.4773 17.7439 23.1787 17.3132 23.9416 17.2271C24.2123 16.3903 24.36 15.4921 24.36 14.5692C24.36 13.7817 24.2493 13.0064 24.0524 12.2804C23.2649 12.2312 22.5019 11.8005 22.0836 11.0499C21.6406 10.287 21.6529 9.37645 22.0467 8.65045C20.9269 7.44455 19.4626 6.54628 17.8137 6.12791C17.383 6.89082 16.5832 7.38303 15.6726 7.38303C14.7621 7.38303 13.9622 6.87852 13.5315 6.14021C11.8827 6.55859 10.4184 7.43225 9.2986 8.63814C9.70467 9.37645 9.72928 10.2993 9.27399 11.0745C8.84332 11.8375 8.05579 12.2681 7.24366 12.3051ZM5.644 11.7882C4.6842 11.0499 4.38888 9.69638 5.01644 8.61353C5.644 7.53069 6.96064 7.10001 8.0804 7.5676C9.44626 6.12791 11.2305 5.06967 13.2239 4.58978C13.3962 3.38388 14.4298 2.461 15.6726 2.461C16.9154 2.461 17.9491 3.38388 18.109 4.58978C20.1148 5.06967 21.8867 6.1156 23.2526 7.5676C24.3723 7.10001 25.7013 7.53069 26.3165 8.61353C26.9441 9.69638 26.6488 11.0499 25.689 11.7882C25.972 12.7357 26.1196 13.7324 26.1196 14.7661C26.1196 15.7997 25.972 16.7964 25.689 17.7439C26.6488 18.4822 26.9441 19.8358 26.3165 20.9186C25.689 22.0014 24.3723 22.4321 23.2526 21.9645C22.7603 22.4936 22.2066 22.9612 21.6037 23.3796L23.2526 27.0711H20.9638L19.7702 24.4009C19.2411 24.6224 18.6874 24.807 18.1213 24.9424C17.9491 26.1483 16.9154 27.0711 15.6726 27.0711C14.4298 27.0711 13.3962 26.1483 13.2362 24.9424C12.6456 24.7947 12.0795 24.6101 11.5381 24.3763L10.3322 27.0711H8.01888L9.69237 23.3427C9.11403 22.9366 8.5726 22.469 8.09271 21.9645C6.96064 22.4321 5.644 22.0014 5.01644 20.9186C4.38888 19.8358 4.6842 18.4822 5.644 17.7439C5.36098 16.7964 5.21332 15.7997 5.21332 14.7661C5.21332 13.7324 5.36098 12.7357 5.644 11.7882Z" fill="#323232"/>
</g>
<defs>
<clipPath id="clip0_23_3051">
<rect width="29.5322" height="29.5322" fill="white" transform="translate(0.906494)"/>
</clipPath>
</defs>
</svg>
