<svg width="22" height="18" viewBox="0 0 22 18" fill="none" xmlns="http://www.w3.org/2000/svg">
<path d="M17.0105 0.537964L18.9455 4.40786C19.0305 4.57796 18.9029 4.7906 18.7116 4.7906H16.6065C16.2025 4.7906 15.8304 4.56733 15.6603 4.20586L13.8211 0.537964H11.6947L13.6297 4.40786C13.7147 4.57796 13.5872 4.7906 13.3958 4.7906H11.2907C10.8867 4.7906 10.5146 4.56733 10.3445 4.20586L8.50526 0.537964H6.37895L8.31389 4.40786C8.39895 4.57796 8.27137 4.7906 8.08 4.7906H5.97495C5.57095 4.7906 5.19884 4.56733 5.01811 4.20586L3.18947 0.537964H2.12632C0.956842 0.537964 0 1.49481 0 2.66428V15.4222C0 16.5916 0.956842 17.5485 2.12632 17.5485H19.1368C20.3063 17.5485 21.2632 16.5916 21.2632 15.4222V1.60112C21.2632 1.01638 20.7847 0.537964 20.2 0.537964H17.0105Z" fill="#323232"/>
</svg>
