<svg width="43" height="26" viewBox="0 0 43 26" fill="none" xmlns="http://www.w3.org/2000/svg">
<path d="M37.7163 7.57159V21.5305H27.7456V7.57159H37.7163ZM37.7163 5.82672H27.7456C26.8317 5.82672 26.0839 6.61191 26.0839 7.57159V21.5305C26.0839 22.4902 26.8317 23.2754 27.7456 23.2754H37.7163C38.6303 23.2754 39.3781 22.4902 39.3781 21.5305V7.57159C39.3781 6.61191 38.6303 5.82672 37.7163 5.82672ZM28.5765 20.6581H36.8854V15.4235H28.5765V20.6581ZM31.0692 12.8062H34.3928V13.6786H36.8854V8.44402H28.5765V13.6786H31.0692V12.8062Z" fill="#323232"/>
<path d="M21.8449 2.5321H3.8977C2.80092 2.5321 1.90356 3.42946 1.90356 4.52624V16.491C1.90356 17.5878 2.80092 18.4852 3.8977 18.4852H10.8772L9.25195 20.928C8.81324 21.5861 9.28186 22.4734 10.0795 22.4734H15.6631C16.4607 22.4734 16.9393 21.5861 16.4907 20.928L14.8654 18.4852H21.8449C22.9417 18.4852 23.839 17.5878 23.839 16.491V4.52624C23.839 3.42946 22.9417 2.5321 21.8449 2.5321ZM21.8449 14.4969H3.8977V5.5233C3.8977 4.97492 4.34638 4.52624 4.89476 4.52624H20.8478C21.3962 4.52624 21.8449 4.97492 21.8449 5.5233V14.4969Z" fill="#323232"/>
</svg>
