<svg width="26" height="27" viewBox="0 0 26 27" fill="none" xmlns="http://www.w3.org/2000/svg">
<path d="M24.3394 20.6606C24.3397 21.6038 24.049 22.5241 23.507 23.2961C22.965 24.068 22.1981 24.654 21.3109 24.9741C20.4236 25.2942 19.4592 25.3328 18.5492 25.0847C17.6392 24.8366 16.8279 24.3138 16.2259 23.5877C15.7962 24.1065 15.2572 24.5241 14.6476 24.8107C14.0379 25.0974 13.3725 25.246 12.6988 25.246C12.0251 25.246 11.3597 25.0974 10.7501 24.8107C10.1404 24.5241 9.60148 24.1065 9.17172 23.5877C8.56974 24.3138 7.75842 24.8366 6.84842 25.0847C5.93842 25.3328 4.97404 25.2942 4.08679 24.9741C3.19955 24.654 2.43263 24.068 1.89064 23.2961C1.34865 22.5241 1.05796 21.6038 1.05823 20.6606C1.05823 20.3799 1.16972 20.1107 1.36818 19.9123C1.56664 19.7138 1.8358 19.6023 2.11646 19.6023C2.39713 19.6023 2.66629 19.7138 2.86475 19.9123C3.06321 20.1107 3.1747 20.3799 3.1747 20.6606C3.18807 21.3066 3.45412 21.9217 3.91576 22.3739C4.37741 22.8261 4.99788 23.0794 5.64409 23.0794C6.2903 23.0794 6.91078 22.8261 7.37242 22.3739C7.83407 21.9217 8.10011 21.3066 8.11349 20.6606C8.11349 20.3799 8.22498 20.1107 8.42344 19.9123C8.62189 19.7138 8.89106 19.6023 9.17172 19.6023C9.45238 19.6023 9.72155 19.7138 9.92001 19.9123C10.1185 20.1107 10.23 20.3799 10.23 20.6606C10.23 21.3154 10.4901 21.9433 10.9531 22.4063C11.4161 22.8693 12.044 23.1294 12.6988 23.1294C13.3536 23.1294 13.9816 22.8693 14.4446 22.4063C14.9076 21.9433 15.1677 21.3154 15.1677 20.6606C15.1677 20.5216 15.1951 20.384 15.2482 20.2556C15.3014 20.1272 15.3794 20.0106 15.4776 19.9123C15.5759 19.814 15.6926 19.7361 15.821 19.6829C15.9493 19.6297 16.087 19.6023 16.2259 19.6023C16.3649 19.6023 16.5025 19.6297 16.6309 19.6829C16.7593 19.7361 16.8759 19.814 16.9742 19.9123C17.0725 20.0106 17.1504 20.1272 17.2036 20.2556C17.2568 20.384 17.2842 20.5216 17.2842 20.6606C17.2975 21.3066 17.5636 21.9217 18.0252 22.3739C18.4869 22.8261 19.1073 23.0794 19.7536 23.0794C20.3998 23.0794 21.0202 22.8261 21.4819 22.3739C21.9435 21.9217 22.2096 21.3066 22.2229 20.6606C22.2229 20.3799 22.3344 20.1107 22.5329 19.9123C22.7314 19.7138 23.0005 19.6023 23.2812 19.6023C23.5618 19.6023 23.831 19.7138 24.0295 19.9123C24.2279 20.1107 24.3394 20.3799 24.3394 20.6606ZM16.9318 16.78V14.6636H8.46588V16.78C8.46588 17.0607 8.35439 17.3299 8.15593 17.5283C7.95747 17.7268 7.6883 17.8383 7.40764 17.8383C7.12698 17.8383 6.85781 17.7268 6.65936 17.5283C6.4609 17.3299 6.34941 17.0607 6.34941 16.78V7.2559C6.35109 5.85311 6.90909 4.50825 7.90101 3.51633C8.89294 2.5244 10.2378 1.9664 11.6406 1.96472C11.9212 1.96472 12.1904 2.07621 12.3889 2.27467C12.5873 2.47313 12.6988 2.7423 12.6988 3.02296C12.6988 3.30362 12.5873 3.57279 12.3889 3.77124C12.1904 3.9697 11.9212 4.08119 11.6406 4.08119C10.7986 4.08119 9.9911 4.41567 9.39573 5.01104C8.80036 5.60642 8.46588 6.41392 8.46588 7.2559H16.9318C16.9334 5.85311 17.4914 4.50825 18.4834 3.51633C19.4753 2.5244 20.8202 1.9664 22.2229 1.96472C22.5036 1.96472 22.7728 2.07621 22.9712 2.27467C23.1697 2.47313 23.2812 2.7423 23.2812 3.02296C23.2812 3.30362 23.1697 3.57279 22.9712 3.77124C22.7728 3.9697 22.5036 4.08119 22.2229 4.08119C21.381 4.08119 20.5735 4.41567 19.9781 5.01104C19.3827 5.60642 19.0482 6.41392 19.0482 7.2559V16.78C19.0482 17.0607 18.9367 17.3299 18.7383 17.5283C18.5398 17.7268 18.2707 17.8383 17.99 17.8383C17.7093 17.8383 17.4402 17.7268 17.2417 17.5283C17.0433 17.3299 16.9318 17.0607 16.9318 16.78ZM16.9318 12.5471V9.37237H8.46588V12.5471H16.9318Z" fill="#323232"/>
</svg>
