<svg width="23" height="23" viewBox="0 0 23 23" fill="none" xmlns="http://www.w3.org/2000/svg">
<path d="M17.4232 10.7352H22.7604C22.5847 8.96712 21.9807 7.31985 21.0692 5.9032C19.1693 6.81469 17.7856 8.59374 17.4232 10.7352Z" fill="#323232"/>
<path d="M6.24365 10.7352C5.88125 8.59374 4.49755 6.81469 2.59769 5.9032C1.6862 7.31985 1.0822 8.96712 0.906494 10.7352H6.24365Z" fill="#323232"/>
<path d="M15.2049 10.7352C15.5563 7.89092 17.2695 5.47493 19.6635 4.14613C17.9064 2.35609 15.5563 1.17006 12.9316 0.906494V10.7352H15.2049Z" fill="#323232"/>
<path d="M8.46203 10.7352H10.7353V0.906494C8.11061 1.17006 5.74953 2.35609 4.00342 4.14613C6.39745 5.47493 8.11061 7.89092 8.46203 10.7352Z" fill="#323232"/>
<path d="M15.205 12.9316H12.9318V22.7603C15.5564 22.4967 17.9175 21.3107 19.6636 19.5207C17.2696 18.1919 15.5564 15.7759 15.205 12.9316Z" fill="#323232"/>
<path d="M2.59769 17.7636C4.48656 16.8521 5.88125 15.0621 6.24365 12.9316H0.906494C1.0822 14.6997 1.6862 16.3469 2.59769 17.7636Z" fill="#323232"/>
<path d="M17.4232 12.9316C17.7856 15.073 19.1693 16.8521 21.0692 17.7636C21.9807 16.3469 22.5847 14.6997 22.7604 12.9316H17.4232Z" fill="#323232"/>
<path d="M8.46203 12.9316C8.11061 15.7759 6.39745 18.1919 4.00342 19.5207C5.76051 21.3107 8.11061 22.4967 10.7353 22.7603V12.9316H8.46203Z" fill="#323232"/>
</svg>
