<svg width="28" height="27" viewBox="0 0 28 27" fill="none" xmlns="http://www.w3.org/2000/svg">
<g clip-path="url(#clip0_23_2557)">
<path d="M14.0965 12.9198C11.4829 10.4834 7.98334 8.9883 4.12939 8.9883V21.1703C7.98334 21.1703 11.4829 22.6654 14.0965 25.1018C16.7101 22.6765 20.2097 21.1703 24.0636 21.1703V8.9883C20.2097 8.9883 16.7101 10.4834 14.0965 12.9198ZM14.0965 8.9883C15.9349 8.9883 17.4189 7.50431 17.4189 5.66594C17.4189 3.82756 15.9349 2.34357 14.0965 2.34357C12.2581 2.34357 10.7741 3.82756 10.7741 5.66594C10.7741 7.50431 12.2581 8.9883 14.0965 8.9883Z" fill="#323232"/>
</g>
<defs>
<clipPath id="clip0_23_2557">
<rect width="26.5789" height="26.5789" fill="white" transform="translate(0.807007 0.128662)"/>
</clipPath>
</defs>
</svg>
