<svg width="285" height="444" viewBox="0 0 285 444" fill="none" xmlns="http://www.w3.org/2000/svg">
<rect x="179" y="419" width="25" height="10" rx="1" fill="#4088DA"/>
<path d="M192.545 431.876V439H191.139V433.497L189.449 434.034V432.926L192.394 431.876H192.545Z" fill="#323232"/>
<rect x="206" y="419" width="25" height="10" rx="1" fill="#FFB911"/>
<path d="M220.98 437.901V439H216.117V438.062L218.417 435.597C218.648 435.34 218.83 435.113 218.964 434.918C219.097 434.719 219.193 434.542 219.252 434.386C219.314 434.226 219.345 434.075 219.345 433.932C219.345 433.717 219.309 433.533 219.237 433.38C219.166 433.224 219.06 433.103 218.92 433.019C218.783 432.934 218.614 432.892 218.412 432.892C218.197 432.892 218.012 432.944 217.855 433.048C217.702 433.152 217.585 433.297 217.504 433.482C217.426 433.668 217.387 433.878 217.387 434.112H215.976C215.976 433.689 216.076 433.302 216.278 432.95C216.48 432.595 216.765 432.314 217.133 432.105C217.501 431.894 217.937 431.788 218.441 431.788C218.939 431.788 219.359 431.869 219.701 432.032C220.046 432.192 220.307 432.423 220.482 432.726C220.661 433.025 220.751 433.383 220.751 433.8C220.751 434.034 220.714 434.264 220.639 434.488C220.564 434.71 220.456 434.931 220.316 435.152C220.18 435.37 220.014 435.592 219.818 435.816C219.623 436.041 219.407 436.274 219.169 436.515L217.934 437.901H220.98Z" fill="#323232"/>
<rect x="233" y="419" width="25" height="10" rx="1" fill="#FC7001"/>
<path d="M244.558 434.835H245.31C245.55 434.835 245.749 434.794 245.905 434.713C246.062 434.628 246.177 434.511 246.252 434.361C246.33 434.208 246.369 434.031 246.369 433.829C246.369 433.647 246.333 433.486 246.262 433.346C246.193 433.202 246.088 433.092 245.944 433.014C245.801 432.932 245.62 432.892 245.402 432.892C245.23 432.892 245.07 432.926 244.924 432.994C244.777 433.062 244.66 433.159 244.572 433.282C244.484 433.406 244.44 433.556 244.44 433.731H243.029C243.029 433.341 243.133 433.001 243.342 432.711C243.553 432.421 243.837 432.195 244.191 432.032C244.546 431.869 244.937 431.788 245.363 431.788C245.845 431.788 246.267 431.866 246.628 432.022C246.989 432.175 247.271 432.402 247.473 432.701C247.674 433.001 247.775 433.372 247.775 433.814C247.775 434.039 247.723 434.257 247.619 434.469C247.515 434.677 247.365 434.866 247.17 435.035C246.978 435.201 246.743 435.335 246.467 435.436C246.19 435.533 245.879 435.582 245.534 435.582H244.558V434.835ZM244.558 435.904V435.177H245.534C245.922 435.177 246.262 435.221 246.555 435.309C246.848 435.396 247.093 435.523 247.292 435.689C247.491 435.852 247.64 436.046 247.741 436.271C247.842 436.492 247.893 436.738 247.893 437.008C247.893 437.34 247.829 437.636 247.702 437.896C247.575 438.154 247.396 438.372 247.165 438.551C246.937 438.73 246.67 438.867 246.364 438.961C246.058 439.052 245.725 439.098 245.363 439.098C245.064 439.098 244.769 439.057 244.479 438.976C244.193 438.891 243.933 438.766 243.698 438.6C243.467 438.43 243.282 438.219 243.142 437.965C243.005 437.708 242.937 437.403 242.937 437.052H244.348C244.348 437.234 244.393 437.397 244.484 437.54C244.576 437.683 244.701 437.796 244.86 437.877C245.023 437.958 245.204 437.999 245.402 437.999C245.627 437.999 245.819 437.958 245.979 437.877C246.141 437.792 246.265 437.675 246.35 437.525C246.438 437.372 246.481 437.195 246.481 436.993C246.481 436.733 246.434 436.524 246.34 436.368C246.245 436.209 246.11 436.091 245.935 436.017C245.759 435.942 245.55 435.904 245.31 435.904H244.558Z" fill="#323232"/>
<rect x="260" y="419" width="25" height="10" rx="1" fill="#FB3F4A"/>
<path d="M275.098 436.344V437.447H269.976L269.907 436.593L272.871 431.891H273.989L272.778 433.917L271.304 436.344H275.098ZM274.292 431.891V439H272.886V431.891H274.292Z" fill="#323232"/>
<path d="M216.511 233L223.5 234.5L224 238L228 237L235 238.861L236.5 241V245L236 246.5L233.702 252.255H231.295L229.5 254V260.5L226.5 264.5L225 265L222.5 264.5L217 263L216.511 258.5L213.5 257L201 248L207 235.5L216.511 233Z" fill="#FFB911" stroke="white"/>
<path d="M111.105 114L142.605 109L166.605 117L187.105 131L164.605 153.5L135.105 164L133.105 179.5L145.105 191.5L146.105 212L116.105 214.5L102.605 199L84 163V137.148L98.5412 127.173L111.105 114Z" fill="#FFB911"/>
<path d="M200.956 271L205.456 266.5L211.956 261.5L217.956 261L220.956 261.5L222.456 262L223.456 264L221.456 272.5L218.456 277.146L213.456 277L211.456 280.5L209.956 281H207.956L206.956 280.5L205.456 283V285.5H202.456L201.456 283V280H200.456V281L198.956 281.5L197.456 283.5L195.456 282L194.956 279L193.397 278.74L191 277.146L195.751 276.325L200.956 271Z" fill="#FC7001" stroke="white"/>
<mask id="path-12-outside-1_219_1566" maskUnits="userSpaceOnUse" x="20" y="248" width="110" height="98" fill="black">
<rect fill="white" x="20" y="248" width="110" height="98"/>
<path d="M66.5 250L85.7041 256.5L84 262L103.295 259.724L114 262L128 292L120.5 293L119 295.5H116V297.5L110.5 295.5V298.5L115 302L117 300H121.5L122.5 300.5L124 302L121 310.5L118 311L115.5 311.5L115 315.5L115.5 317V318L114.5 318.5L112 317.5L110 317L108 315.5L108.5 310L110 309L108.5 305.5L106.5 305L105.5 300L104.5 302H100V306L98 308.5V309.5L101.5 313.5L105.5 317L106.5 318V321L105.5 322L99.5 323L100.5 324.5L99 327.5L97 330.5L96 331L94.5 330.5L94 331.5L95 332.5L94.5 333.5L91 333V331L89 330.5L88 327.5L85 326.5L83.5 327L81.25 327.604L79 328V322.5L81.25 321L82.5 319L84 316.5H85.5V319L85 320.5L86 321L88.5 318.5L87.5 317L86.5 315L88 312L89.5 311L88 308.5L85.5 313L84 314H80.5L79.5 316L77 316.5L76.5 318.5L75.5 319L75 319.5H73L72.5 322L71.5 322.5V325.5L70.5 326V328L71 329V330L69.5 330.5L68.5 331L68 333H65.5L65 334.5L64 335H62.5L62 334H61L58.5 332.5L57.5 330V323H56V329L53.5 331.5L53 333.5L48.5 336L46 343H42.5L42 344L41 344.5H39.5V341L38.5 340.5H36L35.5 337.5L36.5 336.5L37 335L35 333V328L38 326.789L38.5 325.5L39.5 324.5L37.5 324L36 325.5H31.5L28 323H25.5L22 316L24 308H26.5L29.5 312L28 315L30 319L32 319.5L34 320.5L37 320L34.5 318.5L32 317.5L30 315L31 312L33.5 312.5L36 312L35.5 314V316L38 317L40.5 317.5L42 315.5L38.5 311H35L33.5 310L31.5 310.5L29.5 309.5L30 308L35 307.5L40 308V307L37.5 306.5L37 305H34L32 306.5L29.5 305L31 302.5V297L33 291.5H31.5L30.5 295H28.5L29 291L30 287.5L28 286L27 283.5L24.5 283V285.5L21 286.5V279L23 277.5L25.5 279L28 277L28.5 278.5L28 280.5L29.5 283L32 282L33.5 285.5L35 283L29 275.5V273.5L26 272.5L25 271L27 270.5L27.5 267.5L30.5 265.5L29.5 264L31 259.724L37.5 255.5L45.5 254.5L66.5 250Z"/>
</mask>
<path d="M66.5 250L85.7041 256.5L84 262L103.295 259.724L114 262L128 292L120.5 293L119 295.5H116V297.5L110.5 295.5V298.5L115 302L117 300H121.5L122.5 300.5L124 302L121 310.5L118 311L115.5 311.5L115 315.5L115.5 317V318L114.5 318.5L112 317.5L110 317L108 315.5L108.5 310L110 309L108.5 305.5L106.5 305L105.5 300L104.5 302H100V306L98 308.5V309.5L101.5 313.5L105.5 317L106.5 318V321L105.5 322L99.5 323L100.5 324.5L99 327.5L97 330.5L96 331L94.5 330.5L94 331.5L95 332.5L94.5 333.5L91 333V331L89 330.5L88 327.5L85 326.5L83.5 327L81.25 327.604L79 328V322.5L81.25 321L82.5 319L84 316.5H85.5V319L85 320.5L86 321L88.5 318.5L87.5 317L86.5 315L88 312L89.5 311L88 308.5L85.5 313L84 314H80.5L79.5 316L77 316.5L76.5 318.5L75.5 319L75 319.5H73L72.5 322L71.5 322.5V325.5L70.5 326V328L71 329V330L69.5 330.5L68.5 331L68 333H65.5L65 334.5L64 335H62.5L62 334H61L58.5 332.5L57.5 330V323H56V329L53.5 331.5L53 333.5L48.5 336L46 343H42.5L42 344L41 344.5H39.5V341L38.5 340.5H36L35.5 337.5L36.5 336.5L37 335L35 333V328L38 326.789L38.5 325.5L39.5 324.5L37.5 324L36 325.5H31.5L28 323H25.5L22 316L24 308H26.5L29.5 312L28 315L30 319L32 319.5L34 320.5L37 320L34.5 318.5L32 317.5L30 315L31 312L33.5 312.5L36 312L35.5 314V316L38 317L40.5 317.5L42 315.5L38.5 311H35L33.5 310L31.5 310.5L29.5 309.5L30 308L35 307.5L40 308V307L37.5 306.5L37 305H34L32 306.5L29.5 305L31 302.5V297L33 291.5H31.5L30.5 295H28.5L29 291L30 287.5L28 286L27 283.5L24.5 283V285.5L21 286.5V279L23 277.5L25.5 279L28 277L28.5 278.5L28 280.5L29.5 283L32 282L33.5 285.5L35 283L29 275.5V273.5L26 272.5L25 271L27 270.5L27.5 267.5L30.5 265.5L29.5 264L31 259.724L37.5 255.5L45.5 254.5L66.5 250Z" fill="#FFB911"/>
<path d="M66.5 250L85.7041 256.5L84 262L103.295 259.724L114 262L128 292L120.5 293L119 295.5H116V297.5L110.5 295.5V298.5L115 302L117 300H121.5L122.5 300.5L124 302L121 310.5L118 311L115.5 311.5L115 315.5L115.5 317V318L114.5 318.5L112 317.5L110 317L108 315.5L108.5 310L110 309L108.5 305.5L106.5 305L105.5 300L104.5 302H100V306L98 308.5V309.5L101.5 313.5L105.5 317L106.5 318V321L105.5 322L99.5 323L100.5 324.5L99 327.5L97 330.5L96 331L94.5 330.5L94 331.5L95 332.5L94.5 333.5L91 333V331L89 330.5L88 327.5L85 326.5L83.5 327L81.25 327.604L79 328V322.5L81.25 321L82.5 319L84 316.5H85.5V319L85 320.5L86 321L88.5 318.5L87.5 317L86.5 315L88 312L89.5 311L88 308.5L85.5 313L84 314H80.5L79.5 316L77 316.5L76.5 318.5L75.5 319L75 319.5H73L72.5 322L71.5 322.5V325.5L70.5 326V328L71 329V330L69.5 330.5L68.5 331L68 333H65.5L65 334.5L64 335H62.5L62 334H61L58.5 332.5L57.5 330V323H56V329L53.5 331.5L53 333.5L48.5 336L46 343H42.5L42 344L41 344.5H39.5V341L38.5 340.5H36L35.5 337.5L36.5 336.5L37 335L35 333V328L38 326.789L38.5 325.5L39.5 324.5L37.5 324L36 325.5H31.5L28 323H25.5L22 316L24 308H26.5L29.5 312L28 315L30 319L32 319.5L34 320.5L37 320L34.5 318.5L32 317.5L30 315L31 312L33.5 312.5L36 312L35.5 314V316L38 317L40.5 317.5L42 315.5L38.5 311H35L33.5 310L31.5 310.5L29.5 309.5L30 308L35 307.5L40 308V307L37.5 306.5L37 305H34L32 306.5L29.5 305L31 302.5V297L33 291.5H31.5L30.5 295H28.5L29 291L30 287.5L28 286L27 283.5L24.5 283V285.5L21 286.5V279L23 277.5L25.5 279L28 277L28.5 278.5L28 280.5L29.5 283L32 282L33.5 285.5L35 283L29 275.5V273.5L26 272.5L25 271L27 270.5L27.5 267.5L30.5 265.5L29.5 264L31 259.724L37.5 255.5L45.5 254.5L66.5 250Z" stroke="white" stroke-width="2" mask="url(#path-12-outside-1_219_1566)"/>
<path d="M162.5 235L153 229.5L145 223L132.5 215L127.5 220L123.5 220.5L119 223L117 226.5L113.5 229.5L111.5 236.5L109 243.5V248V255L110.5 259.5L112.5 267.5L113.5 270L115 271V277L120 280.5V283.5L124.5 287L125.5 289.5V294H127L128.5 292.5L129.5 294L125.5 299.5L130.5 310.5H134L133.5 308.5L135 307.5L135.5 311.5L143 311L143.5 306L142.5 304V302.5L144.5 303L145 301L143 299.5V297H141L140.5 294.5H138.5L136 298L137 300.5V303L134.5 300.5L133.5 299L134.5 298.5V295.5L133.5 293.5L132.5 293V292L134.5 290L135.5 291H138L139 290.5L140 287.5L141 288L140.5 293L145.5 296L148.5 297.5H153V293.5L156 294V296L161.5 299.5H162.5L163.5 298.5L164.5 299.5L163 300.5V302L161.5 302.5L162.5 304.5L164 306.5L166.5 307.5L168 305.5V303.5V301.5L170.5 301V296.5L168 295.5V290.5L171.5 290L172.5 287L171 284L171.5 281.5H175.5L176.5 284L178.5 284.5L180 283.5L180.5 280.5L179 278.5L180 277.722L187 282.5L189.5 281H191V283.5L192.5 283L194 281.5V278.5H197L198 276.5L200.5 275L201.5 273L204.5 272V269L209.5 267L211 268L212.5 267L213 263H217L218.5 258.5L214.5 255L211 251.5L206.5 250L204 247V243.5L203.5 241L197 238.5H180L162.5 235Z" fill="#FFB911" stroke="white"/>
<path d="M182 129L191 118L221 125.5L230 153L233 162.5L234.5 167.5V177L230.5 184L231 189V193L230.5 194L234.5 203.5L233 208L234.5 210.5L237.5 208.5L240 204L243 203V210L240.5 222.5L237.5 235L235.5 240.5H233L228.5 239L222 240L221.5 236L216 235.5L209.5 238L211 241L207 241.5L204 244L197.5 242L195.5 246H192L190.5 248L184.5 245L180 246L175.5 244L176 238.5L170 235L164.5 242.5L158.5 240L154.5 241L152 238.5L152.5 237V232.5L149.5 230.5L147 227L139.5 224.5L135 223L133 219.5L134 217L133.5 214.5L132.5 211.5L130.5 209H134L135 205L137 203.5L137.5 201L136 198.5L138.5 196.5L140.5 197.5L142 196L140 194.5V192H137.5L135.5 193L131 190L129 191.5L127 190.5L127.5 186.5L129.5 185.5L130 184L129.5 182.5L129 180.5L130 179L129.5 173L131 172.5L131.5 170.5L129 169.5V168L124 166.5V164.5L127.5 164L130 162L129 158H133.5L135.5 153.5L139.5 156H143L142.5 153.5L140.5 151L143 147L144.5 148.5L146 146.5L151.5 148L152 145.5L154.5 143L159.5 146.5V149L167 148L169 145L166.5 142.5L169.5 136.5L179 130L182 129Z" fill="#4088DA" stroke="white"/>
<mask id="path-15-outside-2_219_1566" maskUnits="userSpaceOnUse" x="69" y="0" width="168" height="163" fill="black">
<rect fill="white" x="69" width="168" height="163"/>
<path d="M159 2.5L164 2L167.5 12L169 13.5V16.5L172.5 19.5L173 23.5L181 41.5L185 47L187 48V50.5L193 57.5L196 62.5L208 76V80L211.5 87.5L214 91.5L216.5 94.5V98L221.5 100.5L222.5 105.5L224 106L226 109.5L227.5 113L228 119L230.5 124.5L233 125.5V126.5L232.5 141.5L236 147.5V156.5L231.5 161L231 160.5L229.5 159.5L228 161.5L227 161L223.5 160V158.5L224.5 158L224 157L222.5 152L224 148L222.5 147L223 144.5L222 143.5L220 145.5L215 143.5V140.5L210.5 139L210 133.5L212.5 131L216 132L217 129.5L210.5 127L209 128.5L202 128L200.5 127L199 126.5L197.5 128.5L196.5 128L196 126L194 125L192.5 123L187 125L189 127L188 130.5L187 131L181 129.5L180 127.5L174.5 127L170.5 124.5L165.5 125.5L164.5 121.5H161L157.5 123.5L155.5 120.5L157.5 119.5L159.5 117L157.5 115.5H153.5L151.5 114L147.5 116L145.5 115L142 118H139.5V114.5L136.5 112.5L132 115V120L129.5 121L125.5 120.5V117.5L111 120V89L102 78.5L104.5 59L81 53.5L71 32.5L81 24.5H84.5L87 23H100.5L104 25.5L112 22L115.5 23.5L123.5 21.5L127 24L132 23L143 24.5L151 20.5L159 8V2.5Z"/>
</mask>
<path d="M159 2.5L164 2L167.5 12L169 13.5V16.5L172.5 19.5L173 23.5L181 41.5L185 47L187 48V50.5L193 57.5L196 62.5L208 76V80L211.5 87.5L214 91.5L216.5 94.5V98L221.5 100.5L222.5 105.5L224 106L226 109.5L227.5 113L228 119L230.5 124.5L233 125.5V126.5L232.5 141.5L236 147.5V156.5L231.5 161L231 160.5L229.5 159.5L228 161.5L227 161L223.5 160V158.5L224.5 158L224 157L222.5 152L224 148L222.5 147L223 144.5L222 143.5L220 145.5L215 143.5V140.5L210.5 139L210 133.5L212.5 131L216 132L217 129.5L210.5 127L209 128.5L202 128L200.5 127L199 126.5L197.5 128.5L196.5 128L196 126L194 125L192.5 123L187 125L189 127L188 130.5L187 131L181 129.5L180 127.5L174.5 127L170.5 124.5L165.5 125.5L164.5 121.5H161L157.5 123.5L155.5 120.5L157.5 119.5L159.5 117L157.5 115.5H153.5L151.5 114L147.5 116L145.5 115L142 118H139.5V114.5L136.5 112.5L132 115V120L129.5 121L125.5 120.5V117.5L111 120V89L102 78.5L104.5 59L81 53.5L71 32.5L81 24.5H84.5L87 23H100.5L104 25.5L112 22L115.5 23.5L123.5 21.5L127 24L132 23L143 24.5L151 20.5L159 8V2.5Z" fill="#FFB911"/>
<path d="M159 2.5L164 2L167.5 12L169 13.5V16.5L172.5 19.5L173 23.5L181 41.5L185 47L187 48V50.5L193 57.5L196 62.5L208 76V80L211.5 87.5L214 91.5L216.5 94.5V98L221.5 100.5L222.5 105.5L224 106L226 109.5L227.5 113L228 119L230.5 124.5L233 125.5V126.5L232.5 141.5L236 147.5V156.5L231.5 161L231 160.5L229.5 159.5L228 161.5L227 161L223.5 160V158.5L224.5 158L224 157L222.5 152L224 148L222.5 147L223 144.5L222 143.5L220 145.5L215 143.5V140.5L210.5 139L210 133.5L212.5 131L216 132L217 129.5L210.5 127L209 128.5L202 128L200.5 127L199 126.5L197.5 128.5L196.5 128L196 126L194 125L192.5 123L187 125L189 127L188 130.5L187 131L181 129.5L180 127.5L174.5 127L170.5 124.5L165.5 125.5L164.5 121.5H161L157.5 123.5L155.5 120.5L157.5 119.5L159.5 117L157.5 115.5H153.5L151.5 114L147.5 116L145.5 115L142 118H139.5V114.5L136.5 112.5L132 115V120L129.5 121L125.5 120.5V117.5L111 120V89L102 78.5L104.5 59L81 53.5L71 32.5L81 24.5H84.5L87 23H100.5L104 25.5L112 22L115.5 23.5L123.5 21.5L127 24L132 23L143 24.5L151 20.5L159 8V2.5Z" stroke="white" stroke-width="2" mask="url(#path-15-outside-2_219_1566)"/>
<path d="M75.4089 36.5L76.9089 38.5L77.9089 40.5L82.9089 43.5L84.409 42.5L83.4089 39L85.4089 37.5L85.909 39.5L86.4089 40.5H88.4089L90.4089 38.5L92.4089 38.5L91.9089 43L94.4089 46L96.9089 44H102.409L103.409 53.5H108.409L109.409 56L111.909 57L113.409 57.5V63L107.909 66V72L105.409 76L106.409 77L109.409 76L107.409 81.5L109.409 82.5H111.909L120.409 87L125.409 87.5L127.909 91.5L123.409 93.5L122.909 97L105.409 130.5H102.409L101.409 132.5L98.4089 134.5V138L89.9089 140H85.9089L83.4089 137.5L81.4089 137H77.9089L74.4089 139L68.4089 138L64.9089 137L56.9089 131L57.4089 129L54.4089 127.5L55.4089 125.5L56.4089 125V121.5L56.9089 120H58.4089V118.5L55.9089 118L51.4089 122H49.9089V119.5H47.9089L48.4089 115.5L49.9089 114.5L48.4089 112L49.9089 110L54.4089 109L54.9089 110.5L56.9089 108.5L59.9089 109L58.4089 107L56.9089 104H51.9089L53.4089 99.5H57.4089L59.4089 95L58.9089 94L56.9089 93L56.4089 87.5L53.4089 85.5H48.9089L48.4089 83.5H44.4089L43.9089 80L41.4089 79L41 69L49.909 68.5L51.909 55.5L54.409 53L58.409 52L65.409 42.5L67.909 38.5L69.9089 39L70.4089 34L70.9089 33L75.4089 36.5Z" fill="#FB3F4A" stroke="white"/>
<path d="M86.5 78V77.5H86H79.5H79.1535L79.0318 77.8244L77.6535 81.5H72.5H71.8371L72.0192 82.1374L72.9247 85.3065L71.4096 86.4428L68.6581 85.5257L68.446 85.455L68.2519 85.5659L64.7519 87.5659L64.1359 87.9179L64.6746 88.3796L68 91.23V95.5V96.0765L68.5707 95.995L71.6817 95.5505L72.5358 97.6857L72.6364 97.9372L72.9019 97.9903L75.4019 98.4903L75.4505 98.5H75.5H78H78.0968L78.1865 98.4639L80.6718 97.4645L81.7951 97.0941L82.584 98.2773L82.8123 98.6199L83.1923 98.4615L89.1923 95.9615L89.4644 95.8482L89.4969 95.5552L89.9616 91.3732L92.6581 90.4743L93.1612 90.3067L92.9642 89.8143L91.9642 87.3143L91.8064 86.9197L91.3915 87.0119L87.1595 87.9524L86.67 87.4629L88.3904 85.3123L88.7301 84.8878L88.2786 84.5848L86.5 83.3914V78Z" fill="#FB3F4A" stroke="white"/>
<path d="M94.7394 198L103.739 208.5L113.739 208H115.739L119.239 211L121.739 211.5L124.5 211L126.739 209.5L128.239 211L129.739 209L132.239 210L136.219 213.491L129.739 224L123.239 226L122.739 229L118.239 232.5L117.739 237.5L116.055 241.834L113.739 247L114.739 249.5H116.239L117.239 252V254L116.239 255V256.5L118.239 257V259.5L115.5 262.5L115 264.5V266L113 268L111.5 266L108.5 264L105 263L103 263.5L101 266.5L86.5 265.5L83.5 267L79.5 266V262L77 260.5L78.5 257L75.5 255.5L74 257L73.5 259.5L73 260H70.5L68.5 255.5L65 253.5L58.5 254L59 258L56.5 259L56 262.5L55 263L50.5 264L49 264.5L47 265.5H43.5V263.5L44.5 262L45 257.5L41 259L37 260L32.5 259.5V257L35 255.5L36 251L39.5 248L45.5 246.5L49 244L46 243.5L43 244.5H38.5L36.5 241.5V238.5L41.5 235H44.5L47 230L46 227L53 226L56.5 228L56 226.5L52 224.5L50.5 223.5L53 221.5L57.5 220.5L58 219.5L47 220.5L46.5 217L44.5 215L45 214L47.5 212.5L50.5 211.5V210L53 209.5L60.2394 207.5L57.7394 201.5L78.7394 198L82.2394 202L94.7394 198Z" fill="#4088DA" stroke="white"/>
<path d="M66.5 137.5L75.5 139L78.5 136.5L83.5 137L87 140H90.5L95 148.5L93 154.5L90 156V159.5L88.5 162.5L90.5 163V165.5L93.5 166L94 168L97 169L95.5 170L96 184L99 186L103.5 191L109.5 197L111 204L113.5 207.5L111 210.5L108 211L100.5 210.5V208.5L97.5 206.5L96 203.5L92.5 200.5L91 201.5L89 203.5L78.5 205V200L69 200.5L62 201.5L60.5 207L50.5 208.5L48.5 206.5L47.5 204.5L45.5 200.5L42.5 200V199H41V199.5H39L40.5 196.5H42.5L43 195L41 193.5L42.5 187H39.5V183.5L42 182.5L39.5 180.5L38 179V176L39.5 175L38.5 174L37.5 172.5V170L38.5 169.5V168.5L37 168L36 166.5V163L39 162L40 161.5L38 159L37.5 158L38 157V156L36.5 154.5L34 158.5L31.5 160.5H30.5L30 158.5L31 156V154L29.5 152.5L27.5 154L28 157.5V158.5H25.5L24.5 157L23 154L21 156H17V154.5L19.5 152.5L17 150.5L15 153H13.5L13 148.5L16 146.5V144L19 141.5V138.5L21.5 137L22 139.5L24.5 139V133L26.5 134L27.5 139L26.5 142L33.5 138.5L34 136.5L32.5 135.5L29 134L28 132L29.5 131L31.5 130.5L32.5 129H35V133L37.5 134V137L37 139V141H38V138L39 137V133.5L40.5 132.5L38 130V129H40L39 126.5V125L44 127L45.5 131L48 131.5V133L47.5 134H50L49.5 131L52 129L54 132H57L60 137L61 143.5H62L62.5 140L66.5 137.5Z" fill="#FFB911" stroke="white"/>
<path d="M96 172L97.5 173V175.5L99.5 176.5L101.5 177.951V175L103.5 174.5V176.049H105V177L104 178L104.5 179L107 179.5L105.605 182.891V189L102.5 191.5V194L99.5 193.5L97 189.5L95 192L92.5 188.281L92 183L93 181V177.5L94.6176 176.049V172.5L96 172Z" fill="#FC7001" stroke="#FFF8F8"/>
<path d="M174 212L176.5 210.5L184.5 209L187.5 210.5L189.227 221.209L187 222L185.395 224.5L186.5 225.5V227H185L183.5 231.5L182.5 234L180 234.5L178.5 233.5L177 232.5L174 234.5V238L173.5 239V242L165 243.5V239L163 237.5V235L166 234.5V232L164.5 230L167 224.5L164.5 222.5L166 218L168.333 216.159L171 219L174 217V212Z" fill="#FC7001" stroke="white"/>
<path d="M42.4254 384.006L42.3153 384.022L42.2227 384.084L39.3099 386.026L30.9131 387.508L30.7579 387.535L30.6464 387.646L28.8357 389.457L26.5981 389.01L26.2891 388.948L26.1 389.2L24.6708 391.106L22.7764 392.053L22.5707 392.156L22.5149 392.379L22.0516 394.232L16.6637 399.13L16.5 399.279V399.5V404.377V404.581L16.6425 404.726L22.1425 410.35L22.2647 410.474L22.438 410.496L26.438 410.996L26.789 411.04L26.9472 410.724L27.7764 409.065L29.9019 409.49L30.0321 409.516L30.1581 409.474L31.5811 409H36.2929L36.6464 409.354L36.7929 409.5H37H40H46.5H46.7071L46.8536 409.354L48.3536 407.854L48.3537 407.854L48.3632 407.844L49.7291 406.4L55.5345 405.999L55.7212 405.986L55.8536 405.854L57.7071 404H61.5H61.7573L61.9069 403.791L64.4069 400.291L64.4216 400.27L64.4341 400.248L66.4009 396.806L69.3536 393.854L69.437 393.77L69.4743 393.658L70.4743 390.658L70.6325 390.184L70.1581 390.026L67.5 389.14V386V385.849L67.416 385.723L66.416 384.223L66.2367 383.954L65.9178 384.007L63.1313 384.471L59.3735 381.603L59.205 381.474L58.9955 381.506L42.4254 384.006Z" fill="#FC7001" stroke="white"/>
<path d="M67.3495 269.646L67.182 269.479L66.9464 269.502L61.975 270H57.0038H56.7686L56.6187 270.181L52.6148 275.018L52.5 275.157V275.337V283.163V283.663H53H56.7846L60.6323 287.839L60.8694 288.096L61.1924 287.961L67.0962 285.5H72H72.3249L72.4569 285.203L74.4569 280.703L74.4629 280.689L74.4682 280.676L75.9682 276.676L76.1105 276.296L75.7684 276.078L70.3146 272.608L67.3495 269.646Z" fill="#FFB911" stroke="white"/>
<g filter="url(#filter0_d_219_1566)">
<rect x="192" y="131" width="35" height="50" rx="3" fill="white"/>
</g>
<path d="M204.365 141.08V141.896H207.269V141.08H204.365ZM204.269 143.336V144.152H207.197V143.336H204.269ZM207.101 139.088V145.592H208.097V139.088H207.101ZM203.705 139.904V140.336C203.705 142.388 202.085 143.984 199.313 144.788L199.721 145.592C202.841 144.656 204.773 142.7 204.773 139.904H203.705ZM199.877 139.904V140.72H204.389V139.904H199.877ZM204.569 145.712C202.373 145.712 200.981 146.492 200.981 147.8C200.981 149.108 202.373 149.888 204.569 149.888C206.765 149.888 208.157 149.108 208.157 147.8C208.157 146.492 206.765 145.712 204.569 145.712ZM204.569 146.492C206.165 146.492 207.185 146.984 207.185 147.8C207.185 148.616 206.165 149.096 204.569 149.096C202.985 149.096 201.965 148.616 201.965 147.8C201.965 146.984 202.985 146.492 204.569 146.492ZM214.372 144.932V146.804H215.356V144.932H214.372ZM209.968 144.392V145.208H219.772V144.392H209.968ZM211.06 146.468V147.272H217.564V149.936H218.56V146.468H211.06ZM211.276 139.34V143.396H218.5V139.34H217.504V140.564H212.26V139.34H211.276ZM212.26 141.344H217.504V142.604H212.26V141.344Z" fill="black"/>
<path d="M211.524 156.159V169H209.406V158.673L206.268 159.736V157.987L211.269 156.159H211.524Z" fill="black"/>
<g filter="url(#filter1_d_219_1566)">
<rect x="152" y="38" width="35" height="50" rx="3" fill="white"/>
</g>
<path d="M166.597 46.088V52.58H167.593V46.088H166.597ZM167.317 48.884V49.724H169.201V48.884H167.317ZM163.597 46.88V47.336C163.597 49.364 161.941 50.996 159.181 51.812L159.601 52.616C162.733 51.692 164.665 49.664 164.665 46.88H163.597ZM159.661 46.88V47.708H164.161V46.88H159.661ZM164.197 52.712C162.037 52.712 160.657 53.504 160.657 54.812C160.657 56.12 162.037 56.912 164.197 56.912C166.345 56.912 167.713 56.12 167.713 54.812C167.713 53.504 166.345 52.712 164.197 52.712ZM164.197 53.504C165.757 53.504 166.753 53.996 166.753 54.812C166.753 55.628 165.757 56.12 164.197 56.12C162.637 56.12 161.641 55.628 161.641 54.812C161.641 53.996 162.637 53.504 164.197 53.504ZM173.052 51.548V53.96H174.048V51.548H173.052ZM177.864 46.088V54.344H178.86V46.088H177.864ZM171.456 55.88V56.696H179.124V55.88H171.456ZM171.456 53.54V56.108H172.452V53.54H171.456ZM170.052 51.92C172.02 51.92 174.648 51.884 176.988 51.512L176.916 50.78C174.612 51.08 171.924 51.104 169.92 51.104L170.052 51.92ZM175.656 52.496V53.228H178.116V52.496H175.656ZM173.448 46.532C171.852 46.532 170.772 47.276 170.772 48.416C170.772 49.568 171.852 50.312 173.448 50.312C175.032 50.312 176.112 49.568 176.112 48.416C176.112 47.276 175.032 46.532 173.448 46.532ZM173.448 47.276C174.456 47.276 175.164 47.72 175.164 48.416C175.164 49.112 174.456 49.556 173.448 49.556C172.428 49.556 171.72 49.112 171.72 48.416C171.72 47.72 172.428 47.276 173.448 47.276Z" fill="black"/>
<path d="M174.319 74.3125V76H165.74V74.5498L169.906 70.0059C170.364 69.4902 170.724 69.0449 170.988 68.6699C171.251 68.2949 171.436 67.958 171.541 67.6592C171.653 67.3545 171.708 67.0586 171.708 66.7715C171.708 66.3672 171.632 66.0127 171.48 65.708C171.333 65.3975 171.116 65.1543 170.829 64.9785C170.542 64.7969 170.194 64.7061 169.783 64.7061C169.309 64.7061 168.91 64.8086 168.588 65.0137C168.266 65.2188 168.023 65.5029 167.859 65.8662C167.695 66.2236 167.613 66.6338 167.613 67.0967H165.494C165.494 66.3525 165.664 65.6729 166.004 65.0576C166.344 64.4365 166.836 63.9443 167.481 63.5811C168.125 63.2119 168.902 63.0273 169.81 63.0273C170.665 63.0273 171.392 63.1709 171.99 63.458C172.587 63.7451 173.041 64.1523 173.352 64.6797C173.668 65.207 173.826 65.8311 173.826 66.5518C173.826 66.9502 173.762 67.3457 173.633 67.7383C173.504 68.1309 173.32 68.5234 173.079 68.916C172.845 69.3027 172.567 69.6924 172.244 70.085C171.922 70.4717 171.568 70.8643 171.181 71.2627L168.412 74.3125H174.319Z" fill="black"/>
<g filter="url(#filter2_d_219_1566)">
<rect x="4" y="291" width="35" height="50" rx="3" fill="white"/>
</g>
<path d="M16.9289 302.076V302.892H19.6649V302.076H16.9289ZM19.1009 299.1V307.044H20.0969V299.1H19.1009ZM13.1729 308.88V309.696H20.3969V308.88H13.1729ZM13.1729 306.348V309.3H14.1689V306.348H13.1729ZM13.9409 300.444V301.32C13.9409 302.856 12.8249 304.296 11.2049 304.872L11.7209 305.664C13.5329 304.992 14.7569 303.288 14.7569 301.32V300.444H13.9409ZM14.1329 300.444V301.308C14.1329 303.144 15.2969 304.776 17.0609 305.412L17.5649 304.632C15.9929 304.08 14.9369 302.712 14.9369 301.308V300.444H14.1329ZM11.5169 299.976V300.78H17.3129V299.976H11.5169ZM29.396 299.088V305.22H30.392V299.088H29.396ZM30.128 301.572V302.4H32V301.572H30.128ZM23.552 305.808V309.792H30.392V305.808H23.552ZM29.42 306.612V308.976H24.536V306.612H29.42ZM22.496 299.628V303.972H23.492V299.628H22.496ZM22.496 303.564V304.404H23.348C24.968 304.404 26.588 304.296 28.424 303.912L28.304 303.096C26.528 303.456 24.908 303.564 23.348 303.564H22.496Z" fill="black"/>
<path d="M26.3186 327.312V329H17.7405V327.55L21.9065 323.006C22.3635 322.49 22.7239 322.045 22.9875 321.67C23.2512 321.295 23.4358 320.958 23.5413 320.659C23.6526 320.354 23.7083 320.059 23.7083 319.771C23.7083 319.367 23.6321 319.013 23.4797 318.708C23.3333 318.397 23.1165 318.154 22.8293 317.979C22.5422 317.797 22.1936 317.706 21.7834 317.706C21.3088 317.706 20.9104 317.809 20.5881 318.014C20.2659 318.219 20.0227 318.503 19.8586 318.866C19.6946 319.224 19.6125 319.634 19.6125 320.097H17.4944C17.4944 319.353 17.6643 318.673 18.0042 318.058C18.344 317.437 18.8362 316.944 19.4807 316.581C20.1252 316.212 20.9016 316.027 21.8098 316.027C22.6653 316.027 23.3918 316.171 23.9895 316.458C24.5872 316.745 25.0413 317.152 25.3518 317.68C25.6682 318.207 25.8264 318.831 25.8264 319.552C25.8264 319.95 25.762 320.346 25.6331 320.738C25.5042 321.131 25.3196 321.523 25.0793 321.916C24.845 322.303 24.5667 322.692 24.2444 323.085C23.9221 323.472 23.5676 323.864 23.1809 324.263L20.4124 327.312H26.3186Z" fill="black"/>
<g filter="url(#filter3_d_219_1566)">
<rect x="130" y="233" width="35" height="50" rx="3" fill="white"/>
</g>
<g filter="url(#filter4_d_219_1566)">
<rect x="130" y="233" width="35" height="50" rx="3" fill="white"/>
</g>
<path d="M142.365 243.08V243.896H145.269V243.08H142.365ZM142.269 245.336V246.152H145.197V245.336H142.269ZM145.101 241.088V247.592H146.097V241.088H145.101ZM141.705 241.904V242.336C141.705 244.388 140.085 245.984 137.313 246.788L137.721 247.592C140.841 246.656 142.773 244.7 142.773 241.904H141.705ZM137.877 241.904V242.72H142.389V241.904H137.877ZM142.569 247.712C140.373 247.712 138.981 248.492 138.981 249.8C138.981 251.108 140.373 251.888 142.569 251.888C144.765 251.888 146.157 251.108 146.157 249.8C146.157 248.492 144.765 247.712 142.569 247.712ZM142.569 248.492C144.165 248.492 145.185 248.984 145.185 249.8C145.185 250.616 144.165 251.096 142.569 251.096C140.985 251.096 139.965 250.616 139.965 249.8C139.965 248.984 140.985 248.492 142.569 248.492ZM155.396 241.088V247.22H156.392V241.088H155.396ZM156.128 243.572V244.4H158V243.572H156.128ZM149.552 247.808V251.792H156.392V247.808H149.552ZM155.42 248.612V250.976H150.536V248.612H155.42ZM148.496 241.628V245.972H149.492V241.628H148.496ZM148.496 245.564V246.404H149.348C150.968 246.404 152.588 246.296 154.424 245.912L154.304 245.096C152.528 245.456 150.908 245.564 149.348 245.564H148.496Z" fill="black"/>
<path d="M152.319 269.312V271H143.74V269.55L147.906 265.006C148.364 264.49 148.724 264.045 148.988 263.67C149.251 263.295 149.436 262.958 149.541 262.659C149.653 262.354 149.708 262.059 149.708 261.771C149.708 261.367 149.632 261.013 149.48 260.708C149.333 260.397 149.116 260.154 148.829 259.979C148.542 259.797 148.194 259.706 147.783 259.706C147.309 259.706 146.91 259.809 146.588 260.014C146.266 260.219 146.023 260.503 145.859 260.866C145.695 261.224 145.613 261.634 145.613 262.097H143.494C143.494 261.353 143.664 260.673 144.004 260.058C144.344 259.437 144.836 258.944 145.481 258.581C146.125 258.212 146.902 258.027 147.81 258.027C148.665 258.027 149.392 258.171 149.99 258.458C150.587 258.745 151.041 259.152 151.352 259.68C151.668 260.207 151.826 260.831 151.826 261.552C151.826 261.95 151.762 262.346 151.633 262.738C151.504 263.131 151.32 263.523 151.079 263.916C150.845 264.303 150.567 264.692 150.244 265.085C149.922 265.472 149.568 265.864 149.181 266.263L146.412 269.312H152.319Z" fill="black"/>
<g filter="url(#filter5_d_219_1566)">
<rect x="57" y="195" width="35" height="50" rx="3" fill="white"/>
</g>
<g filter="url(#filter6_d_219_1566)">
<rect x="57" y="195" width="35" height="50" rx="3" fill="white"/>
</g>
<path d="M69.9289 206.076V206.892H72.6649V206.076H69.9289ZM72.1009 203.1V211.044H73.0969V203.1H72.1009ZM66.1729 212.88V213.696H73.3969V212.88H66.1729ZM66.1729 210.348V213.3H67.1689V210.348H66.1729ZM66.9409 204.444V205.32C66.9409 206.856 65.8249 208.296 64.2049 208.872L64.7209 209.664C66.5329 208.992 67.7569 207.288 67.7569 205.32V204.444H66.9409ZM67.1329 204.444V205.308C67.1329 207.144 68.2969 208.776 70.0609 209.412L70.5649 208.632C68.9929 208.08 67.9369 206.712 67.9369 205.308V204.444H67.1329ZM64.5169 203.976V204.78H70.3129V203.976H64.5169ZM79.372 208.932V210.804H80.356V208.932H79.372ZM74.968 208.392V209.208H84.772V208.392H74.968ZM76.06 210.468V211.272H82.564V213.936H83.56V210.468H76.06ZM76.276 203.34V207.396H83.5V203.34H82.504V204.564H77.26V203.34H76.276ZM77.26 205.344H82.504V206.604H77.26V205.344Z" fill="black"/>
<path d="M76.5237 220.159V233H74.4055V222.673L71.2678 223.736V221.987L76.2688 220.159H76.5237Z" fill="black"/>
<g filter="url(#filter7_d_219_1566)">
<rect x="110" y="87" width="35" height="50" rx="3" fill="white"/>
</g>
<g filter="url(#filter8_d_219_1566)">
<rect x="110" y="87" width="35" height="50" rx="3" fill="white"/>
</g>
<path d="M121.585 100.968V102.6H122.557V100.968H121.585ZM117.169 100.44V101.244H126.973V100.44H117.169ZM121.585 95.052V96.516H122.569V95.052H121.585ZM121.537 96.636V96.816C121.537 98.052 119.845 98.916 117.745 99.096L118.045 99.864C120.421 99.624 122.413 98.592 122.413 96.816V96.636H121.537ZM121.741 96.636V96.816C121.741 98.592 123.733 99.624 126.109 99.864L126.409 99.096C124.309 98.916 122.617 98.052 122.617 96.816V96.636H121.741ZM118.177 96.144V96.936H125.977V96.144H118.177ZM122.065 102.324C119.725 102.324 118.345 102.96 118.345 104.124C118.345 105.288 119.725 105.912 122.065 105.912C124.405 105.912 125.785 105.288 125.785 104.124C125.785 102.96 124.405 102.324 122.065 102.324ZM122.065 103.08C123.781 103.08 124.777 103.44 124.777 104.124C124.777 104.784 123.781 105.156 122.065 105.156C120.349 105.156 119.353 104.784 119.353 104.124C119.353 103.44 120.349 103.08 122.065 103.08ZM132.372 100.932V102.804H133.356V100.932H132.372ZM127.968 100.392V101.208H137.772V100.392H127.968ZM129.06 102.468V103.272H135.564V105.936H136.56V102.468H129.06ZM129.276 95.34V99.396H136.5V95.34H135.504V96.564H130.26V95.34H129.276ZM130.26 97.344H135.504V98.604H130.26V97.344Z" fill="black"/>
<path d="M132.319 123.312V125H123.74V123.55L127.906 119.006C128.364 118.49 128.724 118.045 128.988 117.67C129.251 117.295 129.436 116.958 129.541 116.659C129.653 116.354 129.708 116.059 129.708 115.771C129.708 115.367 129.632 115.013 129.48 114.708C129.333 114.397 129.116 114.154 128.829 113.979C128.542 113.797 128.194 113.706 127.783 113.706C127.309 113.706 126.91 113.809 126.588 114.014C126.266 114.219 126.023 114.503 125.859 114.866C125.695 115.224 125.613 115.634 125.613 116.097H123.494C123.494 115.353 123.664 114.673 124.004 114.058C124.344 113.437 124.836 112.944 125.481 112.581C126.125 112.212 126.902 112.027 127.81 112.027C128.665 112.027 129.392 112.171 129.99 112.458C130.587 112.745 131.041 113.152 131.352 113.68C131.668 114.207 131.826 114.831 131.826 115.552C131.826 115.95 131.762 116.346 131.633 116.738C131.504 117.131 131.32 117.523 131.079 117.916C130.845 118.303 130.567 118.692 130.244 119.085C129.922 119.472 129.568 119.864 129.181 120.263L126.412 123.312H132.319Z" fill="black"/>
<g filter="url(#filter9_d_219_1566)">
<rect x="21" y="147" width="35" height="50" rx="3" fill="white"/>
</g>
<g filter="url(#filter10_d_219_1566)">
<rect x="21" y="147" width="35" height="50" rx="3" fill="white"/>
</g>
<path d="M32.5849 160.968V162.6H33.5569V160.968H32.5849ZM28.1689 160.44V161.244H37.9729V160.44H28.1689ZM32.5849 155.052V156.516H33.5689V155.052H32.5849ZM32.5369 156.636V156.816C32.5369 158.052 30.8449 158.916 28.7449 159.096L29.0449 159.864C31.4209 159.624 33.4129 158.592 33.4129 156.816V156.636H32.5369ZM32.7409 156.636V156.816C32.7409 158.592 34.7329 159.624 37.1089 159.864L37.4089 159.096C35.3089 158.916 33.6169 158.052 33.6169 156.816V156.636H32.7409ZM29.1769 156.144V156.936H36.9769V156.144H29.1769ZM33.0649 162.324C30.7249 162.324 29.3449 162.96 29.3449 164.124C29.3449 165.288 30.7249 165.912 33.0649 165.912C35.4049 165.912 36.7849 165.288 36.7849 164.124C36.7849 162.96 35.4049 162.324 33.0649 162.324ZM33.0649 163.08C34.7809 163.08 35.7769 163.44 35.7769 164.124C35.7769 164.784 34.7809 165.156 33.0649 165.156C31.3489 165.156 30.3529 164.784 30.3529 164.124C30.3529 163.44 31.3489 163.08 33.0649 163.08ZM46.396 155.088V161.22H47.392V155.088H46.396ZM47.128 157.572V158.4H49V157.572H47.128ZM40.552 161.808V165.792H47.392V161.808H40.552ZM46.42 162.612V164.976H41.536V162.612H46.42ZM39.496 155.628V159.972H40.492V155.628H39.496ZM39.496 159.564V160.404H40.348C41.968 160.404 43.588 160.296 45.424 159.912L45.304 159.096C43.528 159.456 41.908 159.564 40.348 159.564H39.496Z" fill="black"/>
<path d="M43.3186 183.312V185H34.7405V183.55L38.9065 179.006C39.3635 178.49 39.7239 178.045 39.9875 177.67C40.2512 177.295 40.4358 176.958 40.5413 176.659C40.6526 176.354 40.7083 176.059 40.7083 175.771C40.7083 175.367 40.6321 175.013 40.4797 174.708C40.3333 174.397 40.1165 174.154 39.8293 173.979C39.5422 173.797 39.1936 173.706 38.7834 173.706C38.3088 173.706 37.9104 173.809 37.5881 174.014C37.2659 174.219 37.0227 174.503 36.8586 174.866C36.6946 175.224 36.6125 175.634 36.6125 176.097H34.4944C34.4944 175.353 34.6643 174.673 35.0042 174.058C35.344 173.437 35.8362 172.944 36.4807 172.581C37.1252 172.212 37.9016 172.027 38.8098 172.027C39.6653 172.027 40.3918 172.171 40.9895 172.458C41.5872 172.745 42.0413 173.152 42.3518 173.68C42.6682 174.207 42.8264 174.831 42.8264 175.552C42.8264 175.95 42.762 176.346 42.6331 176.738C42.5042 177.131 42.3196 177.523 42.0793 177.916C41.845 178.303 41.5667 178.692 41.2444 179.085C40.9221 179.472 40.5676 179.864 40.1809 180.263L37.4124 183.312H43.3186Z" fill="black"/>
<g filter="url(#filter11_d_219_1566)">
<rect x="56" y="388" width="35" height="50" rx="3" fill="white"/>
</g>
<path d="M71.4249 396.088V406.936H72.3849V396.088H71.4249ZM67.4769 399.976V400.804H69.5529V399.976H67.4769ZM69.2529 396.34V406.384H70.1889V396.34H69.2529ZM65.3889 397.768V399.148C65.3889 401.14 64.5489 403.12 63.0369 404.032L63.6489 404.776C65.2449 403.768 66.1569 401.524 66.1569 399.148V397.768H65.3889ZM65.5929 397.768V399.148C65.5929 401.416 66.4689 403.552 68.0529 404.512L68.6649 403.78C67.1769 402.916 66.3609 401.032 66.3609 399.148V397.768H65.5929ZM63.3369 397.348V398.176H68.2929V397.348H63.3369ZM78.324 397.156V397.612C78.324 399.04 76.464 400.288 74.556 400.564L74.94 401.356C77.124 400.984 79.188 399.556 79.188 397.612V397.156H78.324ZM78.576 397.156V397.612C78.576 399.556 80.628 400.984 82.824 401.356L83.196 400.564C81.3 400.288 79.428 399.04 79.428 397.612V397.156H78.576ZM78.36 402.796V406.936H79.344V402.796H78.36ZM73.98 402.268V403.084H83.784V402.268H73.98ZM74.892 396.76V397.564H82.836V396.76H74.892Z" fill="black"/>
<path d="M72.2278 418.644H73.4934C73.9856 418.644 74.3928 418.559 74.7151 418.389C75.0432 418.219 75.2864 417.984 75.4446 417.686C75.6028 417.387 75.6819 417.044 75.6819 416.657C75.6819 416.253 75.6086 415.907 75.4622 415.62C75.3215 415.327 75.1047 415.102 74.8118 414.943C74.5247 414.785 74.1584 414.706 73.7131 414.706C73.3381 414.706 72.9983 414.782 72.6936 414.935C72.3948 415.081 72.1575 415.292 71.9817 415.567C71.8059 415.837 71.718 416.159 71.718 416.534H69.5911C69.5911 415.854 69.7698 415.251 70.1272 414.724C70.4846 414.196 70.9709 413.783 71.5862 413.484C72.2073 413.18 72.9045 413.027 73.678 413.027C74.5042 413.027 75.2249 413.165 75.8401 413.44C76.4612 413.71 76.9446 414.114 77.2903 414.653C77.636 415.192 77.8088 415.86 77.8088 416.657C77.8088 417.021 77.7239 417.39 77.554 417.765C77.384 418.14 77.1321 418.482 76.7981 418.793C76.4641 419.098 76.0481 419.347 75.55 419.54C75.052 419.728 74.4749 419.821 73.8186 419.821H72.2278V418.644ZM72.2278 420.296V419.136H73.8186C74.5686 419.136 75.2073 419.224 75.7346 419.399C76.2678 419.575 76.7014 419.818 77.0354 420.129C77.3694 420.434 77.6125 420.782 77.7649 421.175C77.9231 421.567 78.0022 421.983 78.0022 422.423C78.0022 423.021 77.8938 423.554 77.677 424.022C77.4661 424.485 77.1643 424.878 76.7717 425.2C76.3792 425.522 75.9192 425.766 75.3918 425.93C74.8704 426.094 74.302 426.176 73.6868 426.176C73.136 426.176 72.6086 426.1 72.1047 425.947C71.6008 425.795 71.1497 425.569 70.7512 425.271C70.3528 424.966 70.0364 424.588 69.802 424.137C69.5735 423.68 69.4592 423.152 69.4592 422.555H71.5774C71.5774 422.936 71.6653 423.272 71.8411 423.565C72.0227 423.853 72.2747 424.078 72.5969 424.242C72.925 424.406 73.3 424.488 73.7219 424.488C74.1672 424.488 74.551 424.409 74.8733 424.251C75.1956 424.093 75.4417 423.858 75.6116 423.548C75.7874 423.237 75.8752 422.862 75.8752 422.423C75.8752 421.925 75.7786 421.521 75.5852 421.21C75.3918 420.899 75.1165 420.671 74.759 420.524C74.4016 420.372 73.9797 420.296 73.4934 420.296H72.2278Z" fill="black"/>
<g filter="url(#filter12_d_219_1566)">
<rect x="80" y="16" width="35" height="50" rx="3" fill="white"/>
</g>
<path d="M92.3649 26.08V26.896H95.2689V26.08H92.3649ZM92.2689 28.336V29.152H95.1969V28.336H92.2689ZM95.1009 24.088V30.592H96.0969V24.088H95.1009ZM91.7049 24.904V25.336C91.7049 27.388 90.0849 28.984 87.3129 29.788L87.7209 30.592C90.8409 29.656 92.7729 27.7 92.7729 24.904H91.7049ZM87.8769 24.904V25.72H92.3889V24.904H87.8769ZM92.5689 30.712C90.3729 30.712 88.9809 31.492 88.9809 32.8C88.9809 34.108 90.3729 34.888 92.5689 34.888C94.7649 34.888 96.1569 34.108 96.1569 32.8C96.1569 31.492 94.7649 30.712 92.5689 30.712ZM92.5689 31.492C94.1649 31.492 95.1849 31.984 95.1849 32.8C95.1849 33.616 94.1649 34.096 92.5689 34.096C90.9849 34.096 89.9649 33.616 89.9649 32.8C89.9649 31.984 90.9849 31.492 92.5689 31.492ZM105.876 24.088V34.936H106.872V24.088H105.876ZM102.696 25.252V25.42C102.696 28.3 101.244 30.604 98.112 32.116L98.64 32.92C102.264 31.144 103.68 28.396 103.68 25.252H102.696ZM98.604 25.252V26.068H103.128V25.252H98.604Z" fill="black"/>
<path d="M101.667 49.4385V51.126H92.4385L92.3682 49.8516L97.8877 41.2031H99.584L97.7471 44.3496L94.5742 49.4385H101.667ZM100.067 41.2031V54H97.9492V41.2031H100.067Z" fill="black"/>
<g filter="url(#filter13_d_219_1566)">
<rect x="228" y="246" width="35" height="50" rx="3" fill="white"/>
</g>
<path d="M239.573 259.188V260.856H240.557V259.188H239.573ZM240.077 254.22C237.677 254.22 236.261 254.88 236.261 256.092C236.261 257.304 237.677 257.976 240.077 257.976C242.465 257.976 243.893 257.304 243.893 256.092C243.893 254.88 242.465 254.22 240.077 254.22ZM240.077 254.976C241.841 254.976 242.861 255.384 242.861 256.092C242.861 256.812 241.841 257.22 240.077 257.22C238.301 257.22 237.281 256.812 237.281 256.092C237.281 255.384 238.301 254.976 240.077 254.976ZM235.169 258.672V259.488H244.973V258.672H235.169ZM236.357 260.484V261.252H242.741V262.212H236.381V264.252H237.365V262.932H243.725V260.484H236.357ZM236.381 264.036V264.816H244.049V264.036H236.381ZM248.644 254.748V256.08C248.644 257.76 247.588 259.224 245.932 259.812L246.46 260.604C248.284 259.896 249.46 258.204 249.46 256.08V254.748H248.644ZM248.812 254.748V256.116C248.812 258.024 250.012 259.68 251.8 260.328L252.292 259.548C250.708 258.984 249.628 257.592 249.628 256.116V254.748H248.812ZM253.396 254.076V262.092H254.392V254.076H253.396ZM254.08 257.412V258.24H256V257.412H254.08ZM247.66 263.88V264.696H254.872V263.88H247.66ZM247.66 261.336V264.276H248.656V261.336H247.66Z" fill="black"/>
<path d="M250.319 282.312V284H241.74V282.55L245.906 278.006C246.364 277.49 246.724 277.045 246.988 276.67C247.251 276.295 247.436 275.958 247.541 275.659C247.653 275.354 247.708 275.059 247.708 274.771C247.708 274.367 247.632 274.013 247.48 273.708C247.333 273.397 247.116 273.154 246.829 272.979C246.542 272.797 246.194 272.706 245.783 272.706C245.309 272.706 244.91 272.809 244.588 273.014C244.266 273.219 244.023 273.503 243.859 273.866C243.695 274.224 243.613 274.634 243.613 275.097H241.494C241.494 274.353 241.664 273.673 242.004 273.058C242.344 272.437 242.836 271.944 243.481 271.581C244.125 271.212 244.902 271.027 245.81 271.027C246.665 271.027 247.392 271.171 247.99 271.458C248.587 271.745 249.041 272.152 249.352 272.68C249.668 273.207 249.826 273.831 249.826 274.552C249.826 274.95 249.762 275.346 249.633 275.738C249.504 276.131 249.32 276.523 249.079 276.916C248.845 277.303 248.567 277.692 248.244 278.085C247.922 278.472 247.568 278.864 247.181 279.263L244.412 282.312H250.319Z" fill="black"/>
<g filter="url(#filter14_d_219_1566)">
<rect x="189" y="279" width="35" height="50" rx="3" fill="white"/>
</g>
<path d="M196.169 293.508V294.324H206.009V293.508H196.169ZM200.561 293.892V297.936H201.545V293.892H200.561ZM197.405 287.52V292.212H204.749V287.52H203.765V289.008H198.401V287.52H197.405ZM198.401 289.812H203.765V291.408H198.401V289.812ZM209.644 287.748V289.08C209.644 290.76 208.588 292.224 206.932 292.812L207.46 293.604C209.284 292.896 210.46 291.204 210.46 289.08V287.748H209.644ZM209.812 287.748V289.116C209.812 291.024 211.012 292.68 212.8 293.328L213.292 292.548C211.708 291.984 210.628 290.592 210.628 289.116V287.748H209.812ZM214.396 287.076V295.092H215.392V287.076H214.396ZM215.08 290.412V291.24H217V290.412H215.08ZM208.66 296.88V297.696H215.872V296.88H208.66ZM208.66 294.336V297.276H209.656V294.336H208.66Z" fill="black"/>
<path d="M205.228 309.644H206.493C206.986 309.644 207.393 309.559 207.715 309.389C208.043 309.219 208.286 308.984 208.445 308.686C208.603 308.387 208.682 308.044 208.682 307.657C208.682 307.253 208.609 306.907 208.462 306.62C208.322 306.327 208.105 306.102 207.812 305.943C207.525 305.785 207.158 305.706 206.713 305.706C206.338 305.706 205.998 305.782 205.694 305.935C205.395 306.081 205.157 306.292 204.982 306.567C204.806 306.837 204.718 307.159 204.718 307.534H202.591C202.591 306.854 202.77 306.251 203.127 305.724C203.485 305.196 203.971 304.783 204.586 304.484C205.207 304.18 205.905 304.027 206.678 304.027C207.504 304.027 208.225 304.165 208.84 304.44C209.461 304.71 209.945 305.114 210.29 305.653C210.636 306.192 210.809 306.86 210.809 307.657C210.809 308.021 210.724 308.39 210.554 308.765C210.384 309.14 210.132 309.482 209.798 309.793C209.464 310.098 209.048 310.347 208.55 310.54C208.052 310.728 207.475 310.821 206.819 310.821H205.228V309.644ZM205.228 311.296V310.136H206.819C207.569 310.136 208.207 310.224 208.735 310.399C209.268 310.575 209.701 310.818 210.035 311.129C210.369 311.434 210.613 311.782 210.765 312.175C210.923 312.567 211.002 312.983 211.002 313.423C211.002 314.021 210.894 314.554 210.677 315.022C210.466 315.485 210.164 315.878 209.772 316.2C209.379 316.522 208.919 316.766 208.392 316.93C207.87 317.094 207.302 317.176 206.687 317.176C206.136 317.176 205.609 317.1 205.105 316.947C204.601 316.795 204.15 316.569 203.751 316.271C203.353 315.966 203.036 315.588 202.802 315.137C202.573 314.68 202.459 314.152 202.459 313.555H204.577C204.577 313.936 204.665 314.272 204.841 314.565C205.023 314.853 205.275 315.078 205.597 315.242C205.925 315.406 206.3 315.488 206.722 315.488C207.167 315.488 207.551 315.409 207.873 315.251C208.196 315.093 208.442 314.858 208.612 314.548C208.787 314.237 208.875 313.862 208.875 313.423C208.875 312.925 208.779 312.521 208.585 312.21C208.392 311.899 208.116 311.671 207.759 311.524C207.402 311.372 206.98 311.296 206.493 311.296H205.228Z" fill="black"/>
<g filter="url(#filter15_d_219_1566)">
<rect x="72" y="271" width="35" height="50" rx="3" fill="white"/>
</g>
<path d="M79.7569 279.76V280.576H84.5569V279.76H79.7569ZM81.3889 282.112V284.704H82.3729V282.112H81.3889ZM84.1609 279.76V280.348C84.1609 281.032 84.1609 281.932 83.8849 283.204L84.8569 283.288C85.1329 282.004 85.1329 281.032 85.1329 280.348V279.76H84.1609ZM86.6209 279.088V285.856H87.6169V279.088H86.6209ZM87.1609 282.04V282.88H89.1649V282.04H87.1609ZM79.2169 285.112C81.1489 285.112 83.7169 285.064 85.9609 284.692L85.8889 283.96C83.6929 284.248 81.0649 284.284 79.0969 284.284L79.2169 285.112ZM84.1129 285.988C81.8809 285.988 80.5249 286.708 80.5249 287.944C80.5249 289.192 81.8809 289.912 84.1129 289.912C86.3449 289.912 87.7249 289.192 87.7249 287.944C87.7249 286.708 86.3449 285.988 84.1129 285.988ZM84.1129 286.768C85.7329 286.768 86.7049 287.2 86.7049 287.944C86.7049 288.688 85.7329 289.12 84.1129 289.12C82.5049 289.12 81.5209 288.688 81.5209 287.944C81.5209 287.2 82.5049 286.768 84.1129 286.768ZM94.324 280.156V280.612C94.324 282.04 92.464 283.288 90.556 283.564L90.94 284.356C93.124 283.984 95.188 282.556 95.188 280.612V280.156H94.324ZM94.576 280.156V280.612C94.576 282.556 96.628 283.984 98.824 284.356L99.196 283.564C97.3 283.288 95.428 282.04 95.428 280.612V280.156H94.576ZM94.36 285.796V289.936H95.344V285.796H94.36ZM89.98 285.268V286.084H99.784V285.268H89.98ZM90.892 279.76V280.564H98.836V279.76H90.892Z" fill="black"/>
<path d="M88.2278 301.644H89.4934C89.9856 301.644 90.3928 301.559 90.7151 301.389C91.0432 301.219 91.2864 300.984 91.4446 300.686C91.6028 300.387 91.6819 300.044 91.6819 299.657C91.6819 299.253 91.6086 298.907 91.4622 298.62C91.3215 298.327 91.1047 298.102 90.8118 297.943C90.5247 297.785 90.1584 297.706 89.7131 297.706C89.3381 297.706 88.9983 297.782 88.6936 297.935C88.3948 298.081 88.1575 298.292 87.9817 298.567C87.8059 298.837 87.718 299.159 87.718 299.534H85.5911C85.5911 298.854 85.7698 298.251 86.1272 297.724C86.4846 297.196 86.9709 296.783 87.5862 296.484C88.2073 296.18 88.9045 296.027 89.678 296.027C90.5042 296.027 91.2249 296.165 91.8401 296.44C92.4612 296.71 92.9446 297.114 93.2903 297.653C93.636 298.192 93.8088 298.86 93.8088 299.657C93.8088 300.021 93.7239 300.39 93.554 300.765C93.384 301.14 93.1321 301.482 92.7981 301.793C92.4641 302.098 92.0481 302.347 91.55 302.54C91.052 302.728 90.4749 302.821 89.8186 302.821H88.2278V301.644ZM88.2278 303.296V302.136H89.8186C90.5686 302.136 91.2073 302.224 91.7346 302.399C92.2678 302.575 92.7014 302.818 93.0354 303.129C93.3694 303.434 93.6125 303.782 93.7649 304.175C93.9231 304.567 94.0022 304.983 94.0022 305.423C94.0022 306.021 93.8938 306.554 93.677 307.022C93.4661 307.485 93.1643 307.878 92.7717 308.2C92.3792 308.522 91.9192 308.766 91.3918 308.93C90.8704 309.094 90.302 309.176 89.6868 309.176C89.136 309.176 88.6086 309.1 88.1047 308.947C87.6008 308.795 87.1497 308.569 86.7512 308.271C86.3528 307.966 86.0364 307.588 85.802 307.137C85.5735 306.68 85.4592 306.152 85.4592 305.555H87.5774C87.5774 305.936 87.6653 306.272 87.8411 306.565C88.0227 306.853 88.2747 307.078 88.5969 307.242C88.925 307.406 89.3 307.488 89.7219 307.488C90.1672 307.488 90.551 307.409 90.8733 307.251C91.1956 307.093 91.4417 306.858 91.6116 306.548C91.7874 306.237 91.8752 305.862 91.8752 305.423C91.8752 304.925 91.7786 304.521 91.5852 304.21C91.3918 303.899 91.1165 303.671 90.759 303.524C90.4016 303.372 89.9797 303.296 89.4934 303.296H88.2278Z" fill="black"/>
<g filter="url(#filter16_d_219_1566)">
<rect x="104" y="182" width="35" height="50" rx="3" fill="white"/>
</g>
<path d="M119.425 190.088V200.936H120.385V190.088H119.425ZM117.589 194.432V195.26H119.677V194.432H117.589ZM116.965 190.328V200.384H117.901V190.328H116.965ZM111.565 197.432V198.26H112.273C113.905 198.26 114.997 198.212 116.293 197.936L116.197 197.108C114.937 197.372 113.857 197.432 112.273 197.432H111.565ZM111.565 191.408V197.804H112.549V192.224H115.597V191.408H111.565ZM127.728 193.076V193.892H130.464V193.076H127.728ZM129.9 190.1V198.044H130.896V190.1H129.9ZM123.972 199.88V200.696H131.196V199.88H123.972ZM123.972 197.348V200.3H124.968V197.348H123.972ZM124.74 191.444V192.32C124.74 193.856 123.624 195.296 122.004 195.872L122.52 196.664C124.332 195.992 125.556 194.288 125.556 192.32V191.444H124.74ZM124.932 191.444V192.308C124.932 194.144 126.096 195.776 127.86 196.412L128.364 195.632C126.792 195.08 125.736 193.712 125.736 192.308V191.444H124.932ZM122.316 190.976V191.78H128.112V190.976H122.316Z" fill="black"/>
<path d="M120.228 212.644H121.493C121.986 212.644 122.393 212.559 122.715 212.389C123.043 212.219 123.286 211.984 123.445 211.686C123.603 211.387 123.682 211.044 123.682 210.657C123.682 210.253 123.609 209.907 123.462 209.62C123.322 209.327 123.105 209.102 122.812 208.943C122.525 208.785 122.158 208.706 121.713 208.706C121.338 208.706 120.998 208.782 120.694 208.935C120.395 209.081 120.157 209.292 119.982 209.567C119.806 209.837 119.718 210.159 119.718 210.534H117.591C117.591 209.854 117.77 209.251 118.127 208.724C118.485 208.196 118.971 207.783 119.586 207.484C120.207 207.18 120.905 207.027 121.678 207.027C122.504 207.027 123.225 207.165 123.84 207.44C124.461 207.71 124.945 208.114 125.29 208.653C125.636 209.192 125.809 209.86 125.809 210.657C125.809 211.021 125.724 211.39 125.554 211.765C125.384 212.14 125.132 212.482 124.798 212.793C124.464 213.098 124.048 213.347 123.55 213.54C123.052 213.728 122.475 213.821 121.819 213.821H120.228V212.644ZM120.228 214.296V213.136H121.819C122.569 213.136 123.207 213.224 123.735 213.399C124.268 213.575 124.701 213.818 125.035 214.129C125.369 214.434 125.613 214.782 125.765 215.175C125.923 215.567 126.002 215.983 126.002 216.423C126.002 217.021 125.894 217.554 125.677 218.022C125.466 218.485 125.164 218.878 124.772 219.2C124.379 219.522 123.919 219.766 123.392 219.93C122.87 220.094 122.302 220.176 121.687 220.176C121.136 220.176 120.609 220.1 120.105 219.947C119.601 219.795 119.15 219.569 118.751 219.271C118.353 218.966 118.036 218.588 117.802 218.137C117.573 217.68 117.459 217.152 117.459 216.555H119.577C119.577 216.936 119.665 217.272 119.841 217.565C120.023 217.853 120.275 218.078 120.597 218.242C120.925 218.406 121.3 218.488 121.722 218.488C122.167 218.488 122.551 218.409 122.873 218.251C123.196 218.093 123.442 217.858 123.612 217.548C123.787 217.237 123.875 216.862 123.875 216.423C123.875 215.925 123.779 215.521 123.585 215.21C123.392 214.899 123.116 214.671 122.759 214.524C122.402 214.372 121.98 214.296 121.493 214.296H120.228Z" fill="black"/>
<g filter="url(#filter17_d_219_1566)">
<rect x="179" y="215" width="35" height="50" rx="3" fill="white"/>
</g>
<path d="M194.425 223.088V233.936H195.385V223.088H194.425ZM192.589 227.432V228.26H194.677V227.432H192.589ZM191.965 223.328V233.384H192.901V223.328H191.965ZM186.565 230.432V231.26H187.273C188.905 231.26 189.997 231.212 191.293 230.936L191.197 230.108C189.937 230.372 188.857 230.432 187.273 230.432H186.565ZM186.565 224.408V230.804H187.549V225.224H190.597V224.408H186.565ZM198.204 223.796V224.6H204.984V223.796H198.204ZM196.98 228.452V229.268H206.784V228.452H196.98ZM201.36 228.992V233.948H202.356V228.992H201.36ZM204.516 223.796V224.732C204.516 225.824 204.516 227.084 204.096 228.836L205.08 228.968C205.488 227.132 205.488 225.86 205.488 224.732V223.796H204.516Z" fill="black"/>
<path d="M195.228 245.644H196.493C196.986 245.644 197.393 245.559 197.715 245.389C198.043 245.219 198.286 244.984 198.445 244.686C198.603 244.387 198.682 244.044 198.682 243.657C198.682 243.253 198.609 242.907 198.462 242.62C198.322 242.327 198.105 242.102 197.812 241.943C197.525 241.785 197.158 241.706 196.713 241.706C196.338 241.706 195.998 241.782 195.694 241.935C195.395 242.081 195.157 242.292 194.982 242.567C194.806 242.837 194.718 243.159 194.718 243.534H192.591C192.591 242.854 192.77 242.251 193.127 241.724C193.485 241.196 193.971 240.783 194.586 240.484C195.207 240.18 195.905 240.027 196.678 240.027C197.504 240.027 198.225 240.165 198.84 240.44C199.461 240.71 199.945 241.114 200.29 241.653C200.636 242.192 200.809 242.86 200.809 243.657C200.809 244.021 200.724 244.39 200.554 244.765C200.384 245.14 200.132 245.482 199.798 245.793C199.464 246.098 199.048 246.347 198.55 246.54C198.052 246.728 197.475 246.821 196.819 246.821H195.228V245.644ZM195.228 247.296V246.136H196.819C197.569 246.136 198.207 246.224 198.735 246.399C199.268 246.575 199.701 246.818 200.035 247.129C200.369 247.434 200.613 247.782 200.765 248.175C200.923 248.567 201.002 248.983 201.002 249.423C201.002 250.021 200.894 250.554 200.677 251.022C200.466 251.485 200.164 251.878 199.772 252.2C199.379 252.522 198.919 252.766 198.392 252.93C197.87 253.094 197.302 253.176 196.687 253.176C196.136 253.176 195.609 253.1 195.105 252.947C194.601 252.795 194.15 252.569 193.751 252.271C193.353 251.966 193.036 251.588 192.802 251.137C192.573 250.68 192.459 250.152 192.459 249.555H194.577C194.577 249.936 194.665 250.272 194.841 250.565C195.023 250.853 195.275 251.078 195.597 251.242C195.925 251.406 196.3 251.488 196.722 251.488C197.167 251.488 197.551 251.409 197.873 251.251C198.196 251.093 198.442 250.858 198.612 250.548C198.787 250.237 198.875 249.862 198.875 249.423C198.875 248.925 198.779 248.521 198.585 248.21C198.392 247.899 198.116 247.671 197.759 247.524C197.402 247.372 196.98 247.296 196.493 247.296H195.228Z" fill="black"/>
<g filter="url(#filter18_d_219_1566)">
<rect x="42" y="44" width="35" height="50" rx="3" fill="white"/>
</g>
<path d="M54.5929 55.76V56.576H57.6169V55.76H54.5929ZM51.9769 53.024V54.956C51.9769 56.972 50.7529 59.06 49.1569 59.852L49.7929 60.644C51.5089 59.72 52.7929 57.392 52.7929 54.956V53.024H51.9769ZM52.1689 53.024V54.956C52.1689 57.332 53.4289 59.564 55.1809 60.452L55.7689 59.648C54.1969 58.904 52.9729 56.936 52.9729 54.956V53.024H52.1689ZM57.1249 52.076V62.948H58.1089V52.076H57.1249ZM64.372 57.188V58.856H65.356V57.188H64.372ZM64.876 52.22C62.476 52.22 61.06 52.88 61.06 54.092C61.06 55.304 62.476 55.976 64.876 55.976C67.264 55.976 68.692 55.304 68.692 54.092C68.692 52.88 67.264 52.22 64.876 52.22ZM64.876 52.976C66.64 52.976 67.66 53.384 67.66 54.092C67.66 54.812 66.64 55.22 64.876 55.22C63.1 55.22 62.08 54.812 62.08 54.092C62.08 53.384 63.1 52.976 64.876 52.976ZM59.968 56.672V57.488H69.772V56.672H59.968ZM61.156 58.484V59.252H67.54V60.212H61.18V62.252H62.164V60.932H68.524V58.484H61.156ZM61.18 62.036V62.816H68.848V62.036H61.18Z" fill="black"/>
<path d="M64.5559 77.4385V79.126H55.3274L55.2571 77.8516L60.7766 69.2031H62.4729L60.636 72.3496L57.4631 77.4385H64.5559ZM62.9563 69.2031V82H60.8381V69.2031H62.9563Z" fill="black"/>
<g filter="url(#filter19_d_219_1566)">
<rect x="6" y="69" width="35" height="50" rx="3" fill="white"/>
</g>
<path d="M21.0649 77.1V85.02H22.0729V77.1H21.0649ZM15.1009 86.88V87.696H22.3969V86.88H15.1009ZM15.1009 84.204V87.156H16.0849V84.204H15.1009ZM16.2529 77.844C14.6329 77.844 13.4209 78.948 13.4209 80.52C13.4209 82.08 14.6329 83.196 16.2529 83.196C17.8729 83.196 19.0729 82.08 19.0729 80.52C19.0729 78.948 17.8729 77.844 16.2529 77.844ZM16.2529 78.708C17.3089 78.708 18.1129 79.452 18.1129 80.52C18.1129 81.576 17.3089 82.32 16.2529 82.32C15.1969 82.32 14.3929 81.576 14.3929 80.52C14.3929 79.452 15.1969 78.708 16.2529 78.708ZM26.68 79.128V79.668C26.68 81.192 25.612 82.536 24.004 83.088L24.496 83.868C26.308 83.232 27.496 81.624 27.496 79.668V79.128H26.68ZM26.848 79.128V79.668C26.848 81.54 28.084 83.076 29.896 83.676L30.388 82.884C28.78 82.38 27.676 81.108 27.676 79.668V79.128H26.848ZM24.28 78.54V79.344H30.064V78.54H24.28ZM26.68 77.16V78.84H27.676V77.16H26.68ZM29.704 80.424V81.252H32.44V80.424H29.704ZM31.9 77.1V85.188H32.896V77.1H31.9ZM25.972 86.88V87.696H33.196V86.88H25.972ZM25.972 84.468V87.324H26.968V84.468H25.972Z" fill="black"/>
<path d="M28.5559 102.438V104.126H19.3274L19.2571 102.852L24.7766 94.2031H26.4729L24.636 97.3496L21.4631 102.438H28.5559ZM26.9563 94.2031V107H24.8381V94.2031H26.9563Z" fill="black"/>
<g filter="url(#filter20_d_219_1566)">
<rect x="63" y="125" width="35" height="50" rx="3" fill="white"/>
</g>
<path d="M74.4529 136.964V137.792H76.5289V136.964H74.4529ZM72.4249 134.108V136.172C72.4249 138.032 71.5369 139.976 70.0489 140.852L70.6729 141.608C72.2569 140.636 73.2049 138.44 73.2049 136.172V134.108H72.4249ZM72.6169 134.108V136.136C72.6169 138.248 73.4929 140.408 75.0529 141.368L75.6289 140.588C74.2009 139.724 73.3849 137.876 73.3849 136.136V134.108H72.6169ZM78.4369 133.088V143.936H79.3969V133.088H78.4369ZM76.2409 133.316V143.396H77.1769V133.316H76.2409ZM85.372 136.94V138.956H86.356V136.94H85.372ZM80.968 138.488V139.292H90.772V138.488H80.968ZM85.864 140.18C83.536 140.18 82.144 140.852 82.144 142.052C82.144 143.252 83.536 143.912 85.864 143.912C88.192 143.912 89.584 143.252 89.584 142.052C89.584 140.852 88.192 140.18 85.864 140.18ZM85.864 140.948C87.58 140.948 88.576 141.344 88.576 142.052C88.576 142.76 87.58 143.144 85.864 143.144C84.16 143.144 83.152 142.76 83.152 142.052C83.152 141.344 84.16 140.948 85.864 140.948ZM85.228 133.976V134.3C85.228 135.524 83.464 136.496 81.508 136.688L81.868 137.492C84.124 137.216 86.116 136.04 86.116 134.3V133.976H85.228ZM85.648 133.976V134.3C85.648 136.04 87.64 137.216 89.884 137.492L90.244 136.688C88.288 136.496 86.524 135.524 86.524 134.3V133.976H85.648ZM81.868 133.58V134.384H89.896V133.58H81.868Z" fill="black"/>
<path d="M79.2278 155.644H80.4934C80.9856 155.644 81.3928 155.559 81.7151 155.389C82.0432 155.219 82.2864 154.984 82.4446 154.686C82.6028 154.387 82.6819 154.044 82.6819 153.657C82.6819 153.253 82.6086 152.907 82.4622 152.62C82.3215 152.327 82.1047 152.102 81.8118 151.943C81.5247 151.785 81.1584 151.706 80.7131 151.706C80.3381 151.706 79.9983 151.782 79.6936 151.935C79.3948 152.081 79.1575 152.292 78.9817 152.567C78.8059 152.837 78.718 153.159 78.718 153.534H76.5911C76.5911 152.854 76.7698 152.251 77.1272 151.724C77.4846 151.196 77.9709 150.783 78.5862 150.484C79.2073 150.18 79.9045 150.027 80.678 150.027C81.5042 150.027 82.2249 150.165 82.8401 150.44C83.4612 150.71 83.9446 151.114 84.2903 151.653C84.636 152.192 84.8088 152.86 84.8088 153.657C84.8088 154.021 84.7239 154.39 84.554 154.765C84.384 155.14 84.1321 155.482 83.7981 155.793C83.4641 156.098 83.0481 156.347 82.55 156.54C82.052 156.728 81.4749 156.821 80.8186 156.821H79.2278V155.644ZM79.2278 157.296V156.136H80.8186C81.5686 156.136 82.2073 156.224 82.7346 156.399C83.2678 156.575 83.7014 156.818 84.0354 157.129C84.3694 157.434 84.6125 157.782 84.7649 158.175C84.9231 158.567 85.0022 158.983 85.0022 159.423C85.0022 160.021 84.8938 160.554 84.677 161.022C84.4661 161.485 84.1643 161.878 83.7717 162.2C83.3792 162.522 82.9192 162.766 82.3918 162.93C81.8704 163.094 81.302 163.176 80.6868 163.176C80.136 163.176 79.6086 163.1 79.1047 162.947C78.6008 162.795 78.1497 162.569 77.7512 162.271C77.3528 161.966 77.0364 161.588 76.802 161.137C76.5735 160.68 76.4592 160.152 76.4592 159.555H78.5774C78.5774 159.936 78.6653 160.272 78.8411 160.565C79.0227 160.853 79.2747 161.078 79.5969 161.242C79.925 161.406 80.3 161.488 80.7219 161.488C81.1672 161.488 81.551 161.409 81.8733 161.251C82.1956 161.093 82.4417 160.858 82.6116 160.548C82.7874 160.237 82.8752 159.862 82.8752 159.423C82.8752 158.925 82.7786 158.521 82.5852 158.21C82.3918 157.899 82.1165 157.671 81.759 157.524C81.4016 157.372 80.9797 157.296 80.4934 157.296H79.2278Z" fill="black"/>
<defs>
<filter id="filter0_d_219_1566" x="188" y="127" width="45" height="60" filterUnits="userSpaceOnUse" color-interpolation-filters="sRGB">
<feFlood flood-opacity="0" result="BackgroundImageFix"/>
<feColorMatrix in="SourceAlpha" type="matrix" values="0 0 0 0 0 0 0 0 0 0 0 0 0 0 0 0 0 0 127 0" result="hardAlpha"/>
<feOffset dx="1" dy="1"/>
<feGaussianBlur stdDeviation="2.5"/>
<feComposite in2="hardAlpha" operator="out"/>
<feColorMatrix type="matrix" values="0 0 0 0 0 0 0 0 0 0 0 0 0 0 0 0 0 0 0.15 0"/>
<feBlend mode="normal" in2="BackgroundImageFix" result="effect1_dropShadow_219_1566"/>
<feBlend mode="normal" in="SourceGraphic" in2="effect1_dropShadow_219_1566" result="shape"/>
</filter>
<filter id="filter1_d_219_1566" x="148" y="34" width="45" height="60" filterUnits="userSpaceOnUse" color-interpolation-filters="sRGB">
<feFlood flood-opacity="0" result="BackgroundImageFix"/>
<feColorMatrix in="SourceAlpha" type="matrix" values="0 0 0 0 0 0 0 0 0 0 0 0 0 0 0 0 0 0 127 0" result="hardAlpha"/>
<feOffset dx="1" dy="1"/>
<feGaussianBlur stdDeviation="2.5"/>
<feComposite in2="hardAlpha" operator="out"/>
<feColorMatrix type="matrix" values="0 0 0 0 0 0 0 0 0 0 0 0 0 0 0 0 0 0 0.15 0"/>
<feBlend mode="normal" in2="BackgroundImageFix" result="effect1_dropShadow_219_1566"/>
<feBlend mode="normal" in="SourceGraphic" in2="effect1_dropShadow_219_1566" result="shape"/>
</filter>
<filter id="filter2_d_219_1566" x="0" y="287" width="45" height="60" filterUnits="userSpaceOnUse" color-interpolation-filters="sRGB">
<feFlood flood-opacity="0" result="BackgroundImageFix"/>
<feColorMatrix in="SourceAlpha" type="matrix" values="0 0 0 0 0 0 0 0 0 0 0 0 0 0 0 0 0 0 127 0" result="hardAlpha"/>
<feOffset dx="1" dy="1"/>
<feGaussianBlur stdDeviation="2.5"/>
<feComposite in2="hardAlpha" operator="out"/>
<feColorMatrix type="matrix" values="0 0 0 0 0 0 0 0 0 0 0 0 0 0 0 0 0 0 0.15 0"/>
<feBlend mode="normal" in2="BackgroundImageFix" result="effect1_dropShadow_219_1566"/>
<feBlend mode="normal" in="SourceGraphic" in2="effect1_dropShadow_219_1566" result="shape"/>
</filter>
<filter id="filter3_d_219_1566" x="126" y="229" width="45" height="60" filterUnits="userSpaceOnUse" color-interpolation-filters="sRGB">
<feFlood flood-opacity="0" result="BackgroundImageFix"/>
<feColorMatrix in="SourceAlpha" type="matrix" values="0 0 0 0 0 0 0 0 0 0 0 0 0 0 0 0 0 0 127 0" result="hardAlpha"/>
<feOffset dx="1" dy="1"/>
<feGaussianBlur stdDeviation="2.5"/>
<feComposite in2="hardAlpha" operator="out"/>
<feColorMatrix type="matrix" values="0 0 0 0 0 0 0 0 0 0 0 0 0 0 0 0 0 0 0.15 0"/>
<feBlend mode="normal" in2="BackgroundImageFix" result="effect1_dropShadow_219_1566"/>
<feBlend mode="normal" in="SourceGraphic" in2="effect1_dropShadow_219_1566" result="shape"/>
</filter>
<filter id="filter4_d_219_1566" x="126" y="229" width="45" height="60" filterUnits="userSpaceOnUse" color-interpolation-filters="sRGB">
<feFlood flood-opacity="0" result="BackgroundImageFix"/>
<feColorMatrix in="SourceAlpha" type="matrix" values="0 0 0 0 0 0 0 0 0 0 0 0 0 0 0 0 0 0 127 0" result="hardAlpha"/>
<feOffset dx="1" dy="1"/>
<feGaussianBlur stdDeviation="2.5"/>
<feComposite in2="hardAlpha" operator="out"/>
<feColorMatrix type="matrix" values="0 0 0 0 0 0 0 0 0 0 0 0 0 0 0 0 0 0 0.15 0"/>
<feBlend mode="normal" in2="BackgroundImageFix" result="effect1_dropShadow_219_1566"/>
<feBlend mode="normal" in="SourceGraphic" in2="effect1_dropShadow_219_1566" result="shape"/>
</filter>
<filter id="filter5_d_219_1566" x="53" y="191" width="45" height="60" filterUnits="userSpaceOnUse" color-interpolation-filters="sRGB">
<feFlood flood-opacity="0" result="BackgroundImageFix"/>
<feColorMatrix in="SourceAlpha" type="matrix" values="0 0 0 0 0 0 0 0 0 0 0 0 0 0 0 0 0 0 127 0" result="hardAlpha"/>
<feOffset dx="1" dy="1"/>
<feGaussianBlur stdDeviation="2.5"/>
<feComposite in2="hardAlpha" operator="out"/>
<feColorMatrix type="matrix" values="0 0 0 0 0 0 0 0 0 0 0 0 0 0 0 0 0 0 0.15 0"/>
<feBlend mode="normal" in2="BackgroundImageFix" result="effect1_dropShadow_219_1566"/>
<feBlend mode="normal" in="SourceGraphic" in2="effect1_dropShadow_219_1566" result="shape"/>
</filter>
<filter id="filter6_d_219_1566" x="53" y="191" width="45" height="60" filterUnits="userSpaceOnUse" color-interpolation-filters="sRGB">
<feFlood flood-opacity="0" result="BackgroundImageFix"/>
<feColorMatrix in="SourceAlpha" type="matrix" values="0 0 0 0 0 0 0 0 0 0 0 0 0 0 0 0 0 0 127 0" result="hardAlpha"/>
<feOffset dx="1" dy="1"/>
<feGaussianBlur stdDeviation="2.5"/>
<feComposite in2="hardAlpha" operator="out"/>
<feColorMatrix type="matrix" values="0 0 0 0 0 0 0 0 0 0 0 0 0 0 0 0 0 0 0.15 0"/>
<feBlend mode="normal" in2="BackgroundImageFix" result="effect1_dropShadow_219_1566"/>
<feBlend mode="normal" in="SourceGraphic" in2="effect1_dropShadow_219_1566" result="shape"/>
</filter>
<filter id="filter7_d_219_1566" x="106" y="83" width="45" height="60" filterUnits="userSpaceOnUse" color-interpolation-filters="sRGB">
<feFlood flood-opacity="0" result="BackgroundImageFix"/>
<feColorMatrix in="SourceAlpha" type="matrix" values="0 0 0 0 0 0 0 0 0 0 0 0 0 0 0 0 0 0 127 0" result="hardAlpha"/>
<feOffset dx="1" dy="1"/>
<feGaussianBlur stdDeviation="2.5"/>
<feComposite in2="hardAlpha" operator="out"/>
<feColorMatrix type="matrix" values="0 0 0 0 0 0 0 0 0 0 0 0 0 0 0 0 0 0 0.15 0"/>
<feBlend mode="normal" in2="BackgroundImageFix" result="effect1_dropShadow_219_1566"/>
<feBlend mode="normal" in="SourceGraphic" in2="effect1_dropShadow_219_1566" result="shape"/>
</filter>
<filter id="filter8_d_219_1566" x="106" y="83" width="45" height="60" filterUnits="userSpaceOnUse" color-interpolation-filters="sRGB">
<feFlood flood-opacity="0" result="BackgroundImageFix"/>
<feColorMatrix in="SourceAlpha" type="matrix" values="0 0 0 0 0 0 0 0 0 0 0 0 0 0 0 0 0 0 127 0" result="hardAlpha"/>
<feOffset dx="1" dy="1"/>
<feGaussianBlur stdDeviation="2.5"/>
<feComposite in2="hardAlpha" operator="out"/>
<feColorMatrix type="matrix" values="0 0 0 0 0 0 0 0 0 0 0 0 0 0 0 0 0 0 0.15 0"/>
<feBlend mode="normal" in2="BackgroundImageFix" result="effect1_dropShadow_219_1566"/>
<feBlend mode="normal" in="SourceGraphic" in2="effect1_dropShadow_219_1566" result="shape"/>
</filter>
<filter id="filter9_d_219_1566" x="17" y="143" width="45" height="60" filterUnits="userSpaceOnUse" color-interpolation-filters="sRGB">
<feFlood flood-opacity="0" result="BackgroundImageFix"/>
<feColorMatrix in="SourceAlpha" type="matrix" values="0 0 0 0 0 0 0 0 0 0 0 0 0 0 0 0 0 0 127 0" result="hardAlpha"/>
<feOffset dx="1" dy="1"/>
<feGaussianBlur stdDeviation="2.5"/>
<feComposite in2="hardAlpha" operator="out"/>
<feColorMatrix type="matrix" values="0 0 0 0 0 0 0 0 0 0 0 0 0 0 0 0 0 0 0.15 0"/>
<feBlend mode="normal" in2="BackgroundImageFix" result="effect1_dropShadow_219_1566"/>
<feBlend mode="normal" in="SourceGraphic" in2="effect1_dropShadow_219_1566" result="shape"/>
</filter>
<filter id="filter10_d_219_1566" x="17" y="143" width="45" height="60" filterUnits="userSpaceOnUse" color-interpolation-filters="sRGB">
<feFlood flood-opacity="0" result="BackgroundImageFix"/>
<feColorMatrix in="SourceAlpha" type="matrix" values="0 0 0 0 0 0 0 0 0 0 0 0 0 0 0 0 0 0 127 0" result="hardAlpha"/>
<feOffset dx="1" dy="1"/>
<feGaussianBlur stdDeviation="2.5"/>
<feComposite in2="hardAlpha" operator="out"/>
<feColorMatrix type="matrix" values="0 0 0 0 0 0 0 0 0 0 0 0 0 0 0 0 0 0 0.15 0"/>
<feBlend mode="normal" in2="BackgroundImageFix" result="effect1_dropShadow_219_1566"/>
<feBlend mode="normal" in="SourceGraphic" in2="effect1_dropShadow_219_1566" result="shape"/>
</filter>
<filter id="filter11_d_219_1566" x="52" y="384" width="45" height="60" filterUnits="userSpaceOnUse" color-interpolation-filters="sRGB">
<feFlood flood-opacity="0" result="BackgroundImageFix"/>
<feColorMatrix in="SourceAlpha" type="matrix" values="0 0 0 0 0 0 0 0 0 0 0 0 0 0 0 0 0 0 127 0" result="hardAlpha"/>
<feOffset dx="1" dy="1"/>
<feGaussianBlur stdDeviation="2.5"/>
<feComposite in2="hardAlpha" operator="out"/>
<feColorMatrix type="matrix" values="0 0 0 0 0 0 0 0 0 0 0 0 0 0 0 0 0 0 0.15 0"/>
<feBlend mode="normal" in2="BackgroundImageFix" result="effect1_dropShadow_219_1566"/>
<feBlend mode="normal" in="SourceGraphic" in2="effect1_dropShadow_219_1566" result="shape"/>
</filter>
<filter id="filter12_d_219_1566" x="76" y="12" width="45" height="60" filterUnits="userSpaceOnUse" color-interpolation-filters="sRGB">
<feFlood flood-opacity="0" result="BackgroundImageFix"/>
<feColorMatrix in="SourceAlpha" type="matrix" values="0 0 0 0 0 0 0 0 0 0 0 0 0 0 0 0 0 0 127 0" result="hardAlpha"/>
<feOffset dx="1" dy="1"/>
<feGaussianBlur stdDeviation="2.5"/>
<feComposite in2="hardAlpha" operator="out"/>
<feColorMatrix type="matrix" values="0 0 0 0 0 0 0 0 0 0 0 0 0 0 0 0 0 0 0.15 0"/>
<feBlend mode="normal" in2="BackgroundImageFix" result="effect1_dropShadow_219_1566"/>
<feBlend mode="normal" in="SourceGraphic" in2="effect1_dropShadow_219_1566" result="shape"/>
</filter>
<filter id="filter13_d_219_1566" x="224" y="242" width="45" height="60" filterUnits="userSpaceOnUse" color-interpolation-filters="sRGB">
<feFlood flood-opacity="0" result="BackgroundImageFix"/>
<feColorMatrix in="SourceAlpha" type="matrix" values="0 0 0 0 0 0 0 0 0 0 0 0 0 0 0 0 0 0 127 0" result="hardAlpha"/>
<feOffset dx="1" dy="1"/>
<feGaussianBlur stdDeviation="2.5"/>
<feComposite in2="hardAlpha" operator="out"/>
<feColorMatrix type="matrix" values="0 0 0 0 0 0 0 0 0 0 0 0 0 0 0 0 0 0 0.15 0"/>
<feBlend mode="normal" in2="BackgroundImageFix" result="effect1_dropShadow_219_1566"/>
<feBlend mode="normal" in="SourceGraphic" in2="effect1_dropShadow_219_1566" result="shape"/>
</filter>
<filter id="filter14_d_219_1566" x="185" y="275" width="45" height="60" filterUnits="userSpaceOnUse" color-interpolation-filters="sRGB">
<feFlood flood-opacity="0" result="BackgroundImageFix"/>
<feColorMatrix in="SourceAlpha" type="matrix" values="0 0 0 0 0 0 0 0 0 0 0 0 0 0 0 0 0 0 127 0" result="hardAlpha"/>
<feOffset dx="1" dy="1"/>
<feGaussianBlur stdDeviation="2.5"/>
<feComposite in2="hardAlpha" operator="out"/>
<feColorMatrix type="matrix" values="0 0 0 0 0 0 0 0 0 0 0 0 0 0 0 0 0 0 0.15 0"/>
<feBlend mode="normal" in2="BackgroundImageFix" result="effect1_dropShadow_219_1566"/>
<feBlend mode="normal" in="SourceGraphic" in2="effect1_dropShadow_219_1566" result="shape"/>
</filter>
<filter id="filter15_d_219_1566" x="68" y="267" width="45" height="60" filterUnits="userSpaceOnUse" color-interpolation-filters="sRGB">
<feFlood flood-opacity="0" result="BackgroundImageFix"/>
<feColorMatrix in="SourceAlpha" type="matrix" values="0 0 0 0 0 0 0 0 0 0 0 0 0 0 0 0 0 0 127 0" result="hardAlpha"/>
<feOffset dx="1" dy="1"/>
<feGaussianBlur stdDeviation="2.5"/>
<feComposite in2="hardAlpha" operator="out"/>
<feColorMatrix type="matrix" values="0 0 0 0 0 0 0 0 0 0 0 0 0 0 0 0 0 0 0.15 0"/>
<feBlend mode="normal" in2="BackgroundImageFix" result="effect1_dropShadow_219_1566"/>
<feBlend mode="normal" in="SourceGraphic" in2="effect1_dropShadow_219_1566" result="shape"/>
</filter>
<filter id="filter16_d_219_1566" x="100" y="178" width="45" height="60" filterUnits="userSpaceOnUse" color-interpolation-filters="sRGB">
<feFlood flood-opacity="0" result="BackgroundImageFix"/>
<feColorMatrix in="SourceAlpha" type="matrix" values="0 0 0 0 0 0 0 0 0 0 0 0 0 0 0 0 0 0 127 0" result="hardAlpha"/>
<feOffset dx="1" dy="1"/>
<feGaussianBlur stdDeviation="2.5"/>
<feComposite in2="hardAlpha" operator="out"/>
<feColorMatrix type="matrix" values="0 0 0 0 0 0 0 0 0 0 0 0 0 0 0 0 0 0 0.15 0"/>
<feBlend mode="normal" in2="BackgroundImageFix" result="effect1_dropShadow_219_1566"/>
<feBlend mode="normal" in="SourceGraphic" in2="effect1_dropShadow_219_1566" result="shape"/>
</filter>
<filter id="filter17_d_219_1566" x="175" y="211" width="45" height="60" filterUnits="userSpaceOnUse" color-interpolation-filters="sRGB">
<feFlood flood-opacity="0" result="BackgroundImageFix"/>
<feColorMatrix in="SourceAlpha" type="matrix" values="0 0 0 0 0 0 0 0 0 0 0 0 0 0 0 0 0 0 127 0" result="hardAlpha"/>
<feOffset dx="1" dy="1"/>
<feGaussianBlur stdDeviation="2.5"/>
<feComposite in2="hardAlpha" operator="out"/>
<feColorMatrix type="matrix" values="0 0 0 0 0 0 0 0 0 0 0 0 0 0 0 0 0 0 0.15 0"/>
<feBlend mode="normal" in2="BackgroundImageFix" result="effect1_dropShadow_219_1566"/>
<feBlend mode="normal" in="SourceGraphic" in2="effect1_dropShadow_219_1566" result="shape"/>
</filter>
<filter id="filter18_d_219_1566" x="38" y="40" width="45" height="60" filterUnits="userSpaceOnUse" color-interpolation-filters="sRGB">
<feFlood flood-opacity="0" result="BackgroundImageFix"/>
<feColorMatrix in="SourceAlpha" type="matrix" values="0 0 0 0 0 0 0 0 0 0 0 0 0 0 0 0 0 0 127 0" result="hardAlpha"/>
<feOffset dx="1" dy="1"/>
<feGaussianBlur stdDeviation="2.5"/>
<feComposite in2="hardAlpha" operator="out"/>
<feColorMatrix type="matrix" values="0 0 0 0 0 0 0 0 0 0 0 0 0 0 0 0 0 0 0.15 0"/>
<feBlend mode="normal" in2="BackgroundImageFix" result="effect1_dropShadow_219_1566"/>
<feBlend mode="normal" in="SourceGraphic" in2="effect1_dropShadow_219_1566" result="shape"/>
</filter>
<filter id="filter19_d_219_1566" x="2" y="65" width="45" height="60" filterUnits="userSpaceOnUse" color-interpolation-filters="sRGB">
<feFlood flood-opacity="0" result="BackgroundImageFix"/>
<feColorMatrix in="SourceAlpha" type="matrix" values="0 0 0 0 0 0 0 0 0 0 0 0 0 0 0 0 0 0 127 0" result="hardAlpha"/>
<feOffset dx="1" dy="1"/>
<feGaussianBlur stdDeviation="2.5"/>
<feComposite in2="hardAlpha" operator="out"/>
<feColorMatrix type="matrix" values="0 0 0 0 0 0 0 0 0 0 0 0 0 0 0 0 0 0 0.15 0"/>
<feBlend mode="normal" in2="BackgroundImageFix" result="effect1_dropShadow_219_1566"/>
<feBlend mode="normal" in="SourceGraphic" in2="effect1_dropShadow_219_1566" result="shape"/>
</filter>
<filter id="filter20_d_219_1566" x="59" y="121" width="45" height="60" filterUnits="userSpaceOnUse" color-interpolation-filters="sRGB">
<feFlood flood-opacity="0" result="BackgroundImageFix"/>
<feColorMatrix in="SourceAlpha" type="matrix" values="0 0 0 0 0 0 0 0 0 0 0 0 0 0 0 0 0 0 127 0" result="hardAlpha"/>
<feOffset dx="1" dy="1"/>
<feGaussianBlur stdDeviation="2.5"/>
<feComposite in2="hardAlpha" operator="out"/>
<feColorMatrix type="matrix" values="0 0 0 0 0 0 0 0 0 0 0 0 0 0 0 0 0 0 0.15 0"/>
<feBlend mode="normal" in2="BackgroundImageFix" result="effect1_dropShadow_219_1566"/>
<feBlend mode="normal" in="SourceGraphic" in2="effect1_dropShadow_219_1566" result="shape"/>
</filter>
</defs>
</svg>
